<?xml version="1.0" encoding="UTF-8"?>
<svg width="1200pt" height="1200pt" version="1.1" viewBox="0 0 1200 1200" xmlns="http://www.w3.org/2000/svg">
 <g>
  <path d="m1187.3 760.76c-5.8008-35.566-28.98-65.887-61.785-80.805-2.6797-1.3555-5.8477-1.3555-8.5273 0h-1.4414c-61.992-7.2305-123.37-18.98-183.65-35.156-1.6328-0.44141-3.3516-0.44141-4.9844 0-32.602-6.6953-64.207-17.539-94.055-32.27h-1.3125 0.003906c-11.766-10.328-25.578-18.062-40.535-22.695-11.887-4.2188-24.141-7.3359-36.598-9.3125-0.83984-0.58594-1.7695-1.0312-2.7539-1.3125-30.074-14.395-58.863-31.332-86.051-50.633-15.742-11.02-32.793-20.855-49.32-30.301h-0.003906c-26.719-13.758-51.582-30.859-73.984-50.898-0.41016-0.34375-0.84766-0.64844-1.3086-0.91797-29.5-42.781-55.805-87.676-78.707-134.32-7.9844-16.727-17.012-32.938-27.023-48.535-3.875-5.9492-9.5156-10.539-16.133-13.117-10.238-2.6797-21.141-0.125-29.121 6.8203-18.629 13.117-102.45 95.758-93.004 152.69v0.003907c1.7852 7.6914 4.7031 15.07 8.6562 21.906 2.5508 4.75 4.5742 9.7617 6.0352 14.953l-3.4102 1.9688c-6.4219 4.1094-13.18 7.6641-20.203 10.625-11.152 4.2695-22.953 6.6211-34.891 6.9531-40.402 1.4414-57.324-24.137-75.031-51.289-12.461-19.152-33.188-42.238-61.785-43.812l-0.003907-0.003906c-7.0234-0.49609-14.07 0.625-20.594 3.2812 0.78516-8.6562 1.5742-17.578 2.3594-27.285h0.003906c0.33594-2.7578-0.52344-5.5273-2.3633-7.6094-3.0195-3.2031-7.543-4.5117-11.805-3.4102-5.9453 2.0273-10.414 6.9922-11.805 13.117-5.9219 26.234-8.043 53.184-6.2969 80.02 0 31.875 1.1797 62.047-11.938 89.988-5.2461 11.281-9.4453 20.594-13.117 32.27v-0.003906c-18.914 44.848-27.047 93.504-23.742 142.07h-0.65625c-2.9766 1.0156-5.2734 3.4102-6.168 6.4258-4.3672 14.457-2.7109 30.07 4.5938 43.289 0.55078 0.75391 1.2148 1.418 1.9648 1.9688-2.8945 4.2031-4.6562 9.082-5.1133 14.164v9.0508c0 3.0156 0 7.2148-0.78516 10.758h-0.003906c-7.3789 8.8555-10.41 20.551-8.2617 31.875v5.7734c-0.26953 3.3594-0.26953 6.7383 0 10.102-5.0234 12.996-3.5625 27.605 3.9336 39.352 7.0273 8.1953 15.641 14.891 25.316 19.676 35.934 21.195 75.32 35.891 116.36 43.422l9.5742 1.8359c11.414 2.2305 24.398 4.8555 34.762 5.9023 56.23 6.2539 112.77 9.2734 169.35 9.0508h15.609c2.2734-0.03125 4.457-0.86719 6.168-2.3633 77.133 4.6367 154.13 6.9531 231 6.9531 135.14 0.074218 270.19-7.1953 404.55-21.773 7.875-0.37891 15.555-2.5781 22.434-6.4297h0.78516c32.137-2.043 63.457-10.992 91.824-26.234 16-8.5234 31.078-18.68 44.992-30.301 14.43-14.258 22.234-33.902 21.512-54.176 0.59375-18.047-4.1016-35.875-13.508-51.289zm-58.766-57.062h-0.003907c21.23 13.535 35.578 35.578 39.355 60.473-13.117 16.789-57.848 22.695-87.758 26.234-9.3125 1.1797-17.973 2.3594-25.188 3.6719-33.055 6.0352-69.391 15.871-94.711 41.188-41.059-39.352-78.707-56.668-144.29-30.039l0.003907 0.003906c-39.738 15.035-80.453 27.352-121.86 36.859-9.7852-6.9375-18.609-15.141-26.238-24.398-8.8711-11.141-19.297-20.945-30.957-29.121-27.91-15.723-61.535-17.609-91.035-5.1172-15.457 6.5195-30.043 14.934-43.418 25.055l-5.9023-1.0469c42.055-29.48 88.25-52.555 137.08-68.477 34.238-9.707 55.883-4.0664 91.824 11.938 5.2461 2.3594 10.887 5.1172 16.789 8v0.003906c19.105 10.711 39.711 18.492 61.129 23.086 20.816 0.75391 41.41-4.5312 59.289-15.219 10.797-5.7344 22.25-10.141 34.105-13.117 20.273-3.457 40.895-4.3789 61.391-2.7539 10.102 0 20.594 0.78516 31.875 0.65625h0.003906c41.453-0.53906 82.238-10.543 119.24-29.254 8.2852-3.9414 15.055-10.48 19.281-18.625zm-180.11 146.92-1.9688 2.625 0.003906-0.003906c-4.4844 7.6484-10.625 14.191-17.973 19.152-10.273 3.9727-21.469 4.9297-32.27 2.7539-54.438-5.1172-109.53-12.066-163.45-20.727h-3.1484v0.003907c32.074-8.3047 63.652-18.422 94.578-30.305 56.539-23.609 86.707-9.707 124.22 26.5zm-572.71 56.797c-55.297-0.99219-110.41-6.6523-164.76-16.922-18.012-3.9219-35.59-9.6328-52.469-17.051l-15.609-6.2969c-30.172-12.066-61.391-22.039-91.824-31.875-5.2461-1.707-10.758-3.9336-16.266-6.1641-5.5078-2.2305-8.6562-3.543-13.117-5.1172-0.14062-2.1836-0.14062-4.375 0-6.5586v-6.4258-0.003906c-0.32031-4.3672-0.32031-8.75 0-13.117 22.562 5.6406 43.156 9.9688 70.836 14.824 14.168 2.4922 28.465 4.4609 42.762 6.4258l14.168 1.4453 39.352 4.9844c-3.2227 4.207-5.3008 9.1797-6.0352 14.43-1.5859 8.1602 0.16406 16.617 4.8555 23.48 4.957 6.543 12.324 10.84 20.465 11.938l150.06 20.461h4.1992c7.4023-0.003907 14.559-2.6445 20.188-7.457 5.625-4.8086 9.3516-11.465 10.508-18.777 0.63672-4.3789 0.36719-8.8438-0.78516-13.117l38.305 7.7383zm-344.07-173.28c-3.3281-6.0977-4.875-13.008-4.4609-19.941 5.3281-0.82422 10.371-2.9414 14.691-6.1641 23.5-18.941 42.5-42.867 55.621-70.047 4.2539-10.684 12.156-19.512 22.301-24.926 8.5117-1.6367 17.312-0.91016 25.445 2.1016l31.484 8.6562c-14.562 10.625-29.121 21.121-43.945 31.219-2.8047 2.125-4.2383 5.6055-3.75 9.0898 0.49219 3.4844 2.8281 6.4336 6.1133 7.7031 55.883 14.691 115.43 26.234 172.89 36.859l32.137 6.1641c3.2852 0.625 6.625 0.92969 9.9688 0.91797 8.2812 0.14062 16.426-2.0898 23.48-6.4258 7.4922-5.1211 13.656-11.957 17.973-19.938l7.8711-14.43h-0.003906c37.426 8.2891 75.258 14.641 113.34 19.02 33.961 5.6445 68.715 4.3945 102.18-3.6719 9.0508-2.625 17.578-6.1641 26.234-9.4453 10.902-4.8242 22.234-8.6016 33.844-11.281 28.434-3.4414 57.266 0.72266 83.562 12.066l17.184 6.2969c22.926 9.6289 46.93 16.453 71.488 20.332 4.793 0.54297 9.6094 0.80469 14.43 0.78906 11.457-0.17969 22.891-1.0547 34.238-2.625l16.133-1.8359c1.4492-0.16406 2.8398-0.66016 4.0664-1.4414 6.082-0.64844 11.77-3.3281 16.137-7.6094 5.5781-6.6992 8.3086-15.316 7.6094-24.008v-4.8555 0.003906c55.582 14.41 112.07 25.059 169.09 31.875-2.6602 2.8281-5.8164 5.1406-9.3164 6.8203-34.289 17.258-72.066 26.453-110.45 26.895-11.02 0-21.121 0-30.828-0.65625h0.003906c-21.906-1.7148-43.938-0.69922-65.59 3.0156-13.445 3.1914-26.445 8.0391-38.695 14.43-14.645 8.8008-31.453 13.344-48.535 13.117-19.285-4.1094-37.883-10.957-55.227-20.332-6.1641-3.0156-11.938-5.9023-17.316-8.2656-38.434-17.316-65.59-24.137-104.94-13.117-56.543 18.613-109.7 46.258-157.41 81.855-59.293-13.117-115.83-28.203-166.73-42.238-118.71-32.926-204.64-56.668-241.62-20.465-2.7773 3.3789-7.0586 5.1484-11.414 4.7227-1.0312-0.74609-1.9961-1.5781-2.8828-2.4922-3.2695-3.3984-7.5469-5.6523-12.199-6.4297h-3.6758c-0.14062-0.44922-0.31641-0.88672-0.52344-1.3086zm610.36-88.805c-2.2305 14.297-10.102 18.629-40.141 28.336h-0.78516v-0.003906c-28.234 5.2344-57.148 5.6797-85.527 1.3125-35.418-4.0664-70.965-9.9688-105.86-17.578 17.316-31.875 31.746-58.766 48.668-90.25l16.133-30.039c26.234 4.8555 125.93 61.523 149.02 76.477 14.43 10.23 20.332 19.543 18.496 31.613zm-196.77-207.91h0.91797v-0.003906c4.5234-0.45703 9.0781 0.41016 13.117 2.4922 1.5742 0 2.8867 1.4414 4.4609 2.2305l-5.6406 6.8203c-4.5664-3.043-9.3945-5.6758-14.43-7.8711zm46.566 0.78516 9.3164-11.152c3.0508 2.8633 5.8984 5.9297 8.5273 9.1836 3.2812 4.1992 6.0352 7.8711 8.3945 11.414l-11.805 7.4766c-4.2656-6.1992-9.2422-11.879-14.824-16.922zm-2.4883 26.891-9.5742 6.0352h-0.003906c-2.5039-3.3203-5.2227-6.4766-8.1328-9.4453l7.4766-8.3945c3.793 3.5859 7.2227 7.5391 10.234 11.805zm-42.238 26.234 12.199-14.824c1.4414 1.5742 2.7539 3.1484 4.0664 4.8555zm-2.7539-27.547-11.02 13.117-2.0977-2.0977c0-2.4922 0.65625-5.1172 1.0508-7.7383 0.39453-2.625 0.78516-6.1641 1.3125-9.3125l-0.003907-0.003907c3.9453 1.8008 7.7188 3.9492 11.281 6.4297zm28.859 33.977h-0.003906c1.2969 2.9805 2.3945 6.0508 3.2812 9.1797l-15.613-1.1797zm21.383 1.707-0.003906-0.003906c-1.2812-4.2148-2.8594-8.3359-4.7227-12.332l8.9219-5.6406h-0.003906c1.7695 4.4961 3.0898 9.1523 3.9375 13.906zm26.234-13.117-0.003907-0.003906c-1.332-5.0781-3.0859-10.039-5.2461-14.824l11.414-7.2148h-0.003906c2.1914 5.7383 3.3047 11.832 3.2812 17.973zm-44.605-59.297c-3.0508-1.8008-6.2031-3.4219-9.4414-4.8516-3.5469-1.5156-7.2383-2.6562-11.02-3.4102l5.2461-9.5742v-0.003906c8.6875 0.19922 17.23 2.2578 25.055 6.0352zm-60.734 59.422v0.003906c11.781 10.539 22.379 22.328 31.613 35.152 1.707 2.3984 4.4102 3.8945 7.3477 4.0664h4.3281l-17.969 32.531c-22.301 41.453-40.27 74.902-65.59 122.26-2.5234 5.1445-6.207 9.6328-10.758 13.117-5.8633 3.2734-12.734 4.2539-19.281 2.7539l-32.793-6.9492c-50.242-9.5742-101.79-19.414-151.11-31.352 14.168-9.9688 28.07-20.199 41.977-30.434h-0.003906c1.5352-0.61328 2.8906-1.6055 3.9375-2.8867 27.809-20.727 55.227-41.844 81.984-62.703 34.762-26.891 67.426-52.469 98.645-74.641v0.003907c7.2578-5.832 15.531-10.277 24.398-13.117v2.7539c-0.8125 3.3711 0.23828 6.9219 2.7539 9.3125zm412.95 151.25-1.9688 2.3594c-2.7891-3.1211-5.8633-5.9766-9.1836-8.5273-2.625-2.2305-5.5078-4.1992-8.3945-6.1641l1.9688-4.5898c6.8359 4.5273 12.793 10.258 17.578 16.922zm91.824 25.578h-0.003906c0.14453 2.7539 0.14453 5.5117 0 8.2617 0.35547 3.7148-0.37109 7.4531-2.0977 10.758-2.2891 1.6133-5.082 2.3555-7.8711 2.0977-11.332-0.47266-22.18-4.7227-30.824-12.066-9.4531-8.6914-17.902-18.414-25.188-28.988 21.488 8.4492 43.645 15.074 66.246 19.805zm-123.83 7.6094-2.8867 1.8359-4.4609-1.8359 1.9688-4.0664zm-24.66-7.7422v-7.8711l2.8867 1.4414zm-20.07-4.7227h-1.3125l-4.8555-11.02 6.168 0.65625zm65.586 23.09c1.2148-0.60156 2.2891-1.4492 3.1484-2.4922l19.414-23.875c8.1328 11.84 17.645 22.672 28.336 32.27l2.4922 1.9688c-7.1133 0.63672-14.27 0.63672-21.383 0-11.262-1.4414-22.371-3.9023-33.188-7.3477zm-11.805-34.895c3.293 2.5156 6.1328 5.5781 8.3945 9.0508l-1.9688 2.4922c-3.543-2.8867-7.8711-6.1641-13.117-9.4453l2.2305-4.9844zm-23.086-8c-3.4102-1.707-6.9531-3.4102-10.758-4.9844v-5.25c4.4805 1.4648 8.8633 3.2188 13.117 5.25zm-30.695-10.234c-3.5586-0.60156-7.1523-0.95313-10.758-1.0469v-3.9375c3.5898-0.11328 7.1836 0.019532 10.758 0.39453zm-13.117-24.137v-4.9844c4.6562-0.61719 9.375-0.61719 14.035 0v4.7227c-4.6797-0.25781-9.3711-0.17188-14.035 0.26172zm-537.82 238.48v0.003907c0.84375-5.7266 5.7578-9.9688 11.543-9.9688h1.5742l149.28 20.465 0.003906-0.003906c6.3672 0.88281 10.824 6.7461 9.9688 13.117-0.84766 5.7266-5.7578 9.9688-11.543 9.9727h-1.0508l-149.28-20.07c-6.3711-0.88281-10.828-6.7461-9.9727-13.117zm249.23 6.0352-94.055-18.891c-43.551-8.7891-90.512-14.297-135.9-19.676-23.086-2.75-45.516-5.7695-67.945-8.918l-14.168-1.9688c-14.035-1.8359-28.07-3.8047-41.977-6.2969-26.234-4.5898-45.254-8.5273-65.59-13.117 0-3.2812 0-6.5586 0.65625-9.707 0.65625-3.1484 0-5.7734 0-8.5273 0-2.75 2.2305-6.6875 1.707-6.6875l2.4922 1.9688c2.4805 2.4336 5.4258 4.3516 8.6562 5.6406 5.5938 1.5352 11.5 1.5039 17.078-0.09375 5.5742-1.5938 10.605-4.6953 14.535-8.957 29.121-28.465 118.98-3.543 223 25.316 55.488 15.348 118.06 32.531 183.65 45.648l-8.6562 6.6914zm344.07-236.9-1.707 4.0664h0.003907c-6.7109-3.1875-13.691-5.7773-20.855-7.7383v-4.0664l13.117 4.0664c3.4102 1.1797 6.4258 2.4922 9.4414 3.6719zm-139.05-66.77c21.082 14.777 42.98 28.355 65.59 40.664-2.1602 2.0703-3.2266 5.0312-2.8867 8.0039l6.2969 51.16c0.14062 1.2891 0.54297 2.5391 1.1797 3.6719l2.0977 4.5898h0.003907c-18.449-4.3906-37.598-4.9727-56.277-1.7031-3.8047 0.78516-7.6094 1.707-11.281 2.7539 0.54297-1.7656 0.98047-3.5625 1.3125-5.3789 3.1484-20.594-6.1641-38.172-27.414-51.289-1.0508-0.65625-93.004-56.801-140.75-74.641l51.551-26.234h0.003906c3.082-1.5273 5.1289-4.5703 5.375-8.0039 0.21094-3.4922 0.21094-6.9961 0-10.492 18.391 13.5 37.625 25.812 57.59 36.859 15.871 9.3125 32.531 18.891 47.613 30.039zm-332.27-121.73c-2.9297-5.2656-5.0938-10.918-6.4297-16.789-7.3477-44.074 65.59-120.03 85.266-133.67 3.1367-2.9688 7.3672-4.4883 11.672-4.1992 2.75 1.5312 5.0547 3.7422 6.6914 6.4258 9.3008 14.77 17.754 30.055 25.316 45.781 11.02 21.25 24.398 46.828 39.352 72.934h0.003906c-9.7461-3.125-19.938-4.6289-30.172-4.457-2.8359 0.078124-5.4844 1.4258-7.2148 3.6719-0.84766-0.53906-1.7812-0.9375-2.7539-1.1797-23.875-4.4609-46.043 6.0352-66.898 17.184-16.527 8.7891-32.926 18.102-49.32 27.68l-0.003906-0.003906c-1.5742-4.5625-3.4141-9.0312-5.5078-13.379zm-206.87-33.32c21.512 1.1797 38.434 22.43 46.699 35.285 17.445 26.234 39.352 60.078 87.758 60.078h4.0664v0.003907c13.758-0.34375 27.363-2.957 40.27-7.7383 8.3242-3.6719 16.312-8.0586 23.875-13.117 22.301-13.117 45.254-26.234 68.344-39.352v-0.003907c14.988-9.375 32.297-14.371 49.977-14.43l-20.465 38.566c-0.51172 0.94141-0.86328 1.9609-1.0469 3.0156v1.9688c-14.129 2.4453-27.402 8.4492-38.566 17.445-31.48 22.43-64.406 48.012-99.301 75.164-26.234 20.465-53.125 41.188-80.41 61.523l-46.566-12.066c-7.8438-2.3125-15.965-3.5508-24.137-3.6758-16.004-39.352-32.402-80.672-35.156-123.44-0.72266-19.262-0.066407-38.547 1.9688-57.715 0-3.0156 0-5.9023 0.78516-8.7891 1.8828-4.1289 5.0039-7.5703 8.9258-9.8516 3.9258-2.2773 8.4609-3.2812 12.98-2.875zm-57.586 168.17c4.0664-11.02 8-19.938 13.117-30.828v0.003906c2.457-5.2773 4.5625-10.711 6.2969-16.266 7.5742 29.539 17.441 58.441 29.516 86.445-11.371 7.7188-20.434 18.371-26.234 30.824-11.086 22.277-26.105 42.363-44.34 59.293-2.4922-44.23 4.9023-88.457 21.645-129.47zm135.77 359.95c-9.4414-1.0508-22.035-3.543-32.66-5.7734l-9.707-1.8359c-38.715-7.1719-75.844-21.164-109.66-41.32-7.4141-3.625-14.055-8.6602-19.547-14.82-1.8555-3.2266-2.7617-6.9102-2.6211-10.629l7.4766 3.0195c6.0352 2.4922 11.938 4.9844 18.102 6.9531 29.906 9.5742 60.867 19.414 90.379 31.219l15.48 6.2969c17.809 7.8438 36.352 13.91 55.355 18.102 53.598 10.297 107.96 16.043 162.53 17.184-58.488 0.69922-116.96-2.1055-175.12-8.3945zm970.7-66.508h0.003906c-12.91 10.684-26.891 20.004-41.715 27.812-21.117 11.539-44.207 19.016-68.082 22.035l1.4453-2.2305c8.2227-19.754 24.066-35.359 43.941-43.285 11.434-3.8633 23.359-6.0703 35.418-6.5625 12.625-0.40625 25.109-2.7969 36.992-7.082-1.9727 3.4531-4.4492 6.5898-7.3438 9.3125zm14.168-37.516c-11.281 13.117-26.234 14.691-45.387 16.266-13.902 0.58203-27.645 3.1875-40.793 7.7422-24.828 9.9375-44.598 29.469-54.832 54.176l-1.1797 2.8867v-0.003906c-1.0742 3.6367-2.8594 7.0273-5.25 9.9688-4.6172 2.9531-9.9961 4.5039-15.477 4.4609-208.11 22.75-417.77 28.059-626.76 15.875l-0.91797-2.625 96.414-76.082c20.75-18.145 44.148-33.008 69.395-44.074 23.82-10.328 51.082-9.0703 73.852 3.4102 9.8789 7.2266 18.711 15.789 26.234 25.445 10.07 13.09 22.59 24.094 36.859 32.402 12.062 5.4141 24.898 8.9141 38.043 10.363 54.309 8.6562 109.66 15.609 164.62 20.855 14.602 2.7227 29.688 0.98437 43.289-4.9844 10.105-6.4961 18.512-15.312 24.531-25.711 2.2305-3.1484 4.4609-6.4258 6.9531-9.3125 21.25-26.234 57.324-35.547 89.855-41.453 6.9531-1.3125 15.215-2.3594 24.27-3.543 32.793-4.4609 72.41-9.707 93.66-27.152h-0.003907c2.8164 9.8008 4.0977 19.98 3.8047 30.172z"/>
  <path d="m371.23 518.87c-20.988 14.691-115.96 83.82-125.27 90.906-4.4961 2.9492-7.9766 7.207-9.9727 12.199-1.2695 4.332-1.168 8.9492 0.28906 13.223 1.4531 4.2734 4.1953 7.9961 7.8438 10.652 2.625 2.0977 5.2461 4.0664 93.789 19.281h0.003906c6.9062 1.1992 14.016 0.27344 20.387-2.6523 6.3711-2.9297 11.703-7.7227 15.293-13.746l10.758-17.445c28.988-47.223 41.844-70.309 41.844-82.246-1.0117-13.895-9.293-26.215-21.773-32.402-5.168-2.8398-11.039-4.1406-16.922-3.7461-5.8828 0.39844-11.527 2.4688-16.266 5.9766zm-30.039 127.24c-54.57-9.3125-79.754-14.43-85.922-16.133v-0.003906c-0.44141-0.48438-0.75391-1.0703-0.91797-1.7031 0.82422-1.2148 1.8984-2.2422 3.1484-3.0195 9.3125-7.082 103.89-75.949 124.88-90.512 3.9219-2.8008 9.1953-2.8008 13.117 0 4.7461 2.5586 8.457 6.6836 10.496 11.676l-23.875 6.8203s-44.336 14.824-47.75 39.352v0.003906c-0.75391 6.3125 0.24609 12.711 2.8867 18.496 4.4922 10.816 11.402 20.465 20.203 28.203-1.75 2.5859-4.2383 4.582-7.1406 5.7305-2.9023 1.1445-6.082 1.3906-9.1289 0.69531zm26.234-24.922v-0.003906c-5.5664-5.2227-10.027-11.516-13.117-18.496-1.2812-2.5586-1.8711-5.4062-1.707-8.2617 1.0508-7.6094 25.188-20.594 33.844-22.957l11.543-3.2812c-8 16.27-21.906 39.094-30.301 52.605z"/>
  <path d="m571.96 514.94c0.0625 5.5781-4.4062 10.152-9.9844 10.219-5.5781 0.0625-10.152-4.4062-10.219-9.9844-0.0625-5.5781 4.4062-10.152 9.9844-10.219 5.5781-0.0625 10.152 4.4062 10.219 9.9844"/>
  <path d="m614.09 539.63c0.066406 5.5781-4.4023 10.152-9.9805 10.219-5.5781 0.0625-10.152-4.4062-10.219-9.9844-0.066406-5.5781 4.4023-10.152 9.9805-10.219 5.5781-0.0625 10.152 4.4062 10.219 9.9844"/>
  <path d="m657.57 567.06c0.0625 5.5781-4.4062 10.152-9.9844 10.219-5.5781 0.066406-10.152-4.4023-10.219-9.9805-0.0625-5.5781 4.4062-10.156 9.9844-10.219 5.5781-0.066406 10.152 4.4023 10.219 9.9805"/>
  <path d="m701.58 595.41c0.066406 5.5742-4.4023 10.152-9.9805 10.215-5.5781 0.066406-10.152-4.4023-10.219-9.9805s4.4023-10.152 9.9805-10.219 10.152 4.4062 10.219 9.9844"/>
 </g>
</svg>
