<?xml version="1.0" encoding="UTF-8"?>
<svg width="1200pt" height="1200pt" version="1.1" viewBox="0 0 1200 1200" xmlns="http://www.w3.org/2000/svg">
 <path d="m19.715 919.62c0.53906-0.89844 1.0938-1.8008 1.7539-2.8906 2.1602 1.2617 3.9375 2.1836 4.0664 5.3516 0.085938 1.8008 2.125 4.2227 3.8984 5.1016 5.3047 2.5938 10.727 5.4844 16.43 6.5742 14.09 2.7109 28.297 5.2812 42.574 6.4922 50.555 4.2734 101.21 2.3867 151.82 0.96094 32.555-0.91016 65.102-2.2188 97.633-3.5508 33.949-1.3906 67.871-3.0859 101.81-4.5469 33.422-1.4414 66.828-1.2734 100.25 0.58984 61.488 3.4453 123.02 4.9805 184.62 4.1523 34.199-0.45703 68.34-1.9688 102.43-4.7656 36.086-2.9531 71.52-9.5508 106.68-17.977 46.871-11.219 93.613-22.848 139.51-37.633 7.0938-2.2812 14.125-4.7656 21.145-7.2617 11.746-4.1758 22.934-9.4453 33.383-16.367 13.066-8.6523 26.387-16.934 39.66-25.285 1.7773-1.1172 2.3281-2.2695 2.3164-4.4023-0.035157-7.0078-0.10938-14.062 0.64844-21.023 0.46875-4.3203 2.7344-8.4102 3.6367-12.73 2.1953-10.598-0.058594-20.461-6.0234-29.375-4.4297-6.625-9.2266-13.008-14.09-19.812 0.67188-0.91016 1.6211-2.1836 2.4961-3.3711 0.45703 0.097657 0.73047 0.058594 0.83984 0.17969 9.8516 11.137 19.441 22.465 22.297 37.715 1.3555 7.2617 1.0312 14.605-1.7383 21.406-3.5898 8.7852-3.457 17.773-2.5664 26.82 0.39453 4.1172-0.69531 6.5625-4.2461 8.7734-14.977 9.2891-29.832 18.77-44.629 28.355-13.488 8.7344-28.535 13.848-43.598 18.898-43.055 14.438-86.965 25.871-131.14 36.289-23.125 5.4609-46.297 10.957-69.672 15.07-20.09 3.5391-40.465 5.7734-60.816 7.5-51.035 4.332-102.21 5.293-153.41 4.4023-35.699-0.625-71.398-1.5859-107.06-3.1797-33.625-1.5117-67.223-3.457-100.88-2.2422-29.41 1.0547-58.812 2.4102-88.211 3.625-37.836 1.5703-75.66 3.5508-113.51 4.5977-40.559 1.1172-81.133 1.7148-121.7 1.8125-25.633 0.058594-51.301-1.1523-76.609-5.6641-9.2031-1.6445-18.266-4.332-27.18-7.1992-5.7227-1.8359-10.598-5.3984-12.816-11.508-0.007812-1.293-0.007812-2.5898-0.007812-3.8828zm774.05-247.72c-0.92578-0.25391-1.8477-0.49219-2.7617-0.76953-9.7188-2.9414-19.43-5.9297-29.16-8.8086-0.875-0.26562-2.3984-0.28906-2.832 0.23828-3.0859 3.707-6.1211 7.4883-8.8672 11.449-2.9648 4.2617-5.2305 9.0352-8.5078 13.008-2.0625 2.5078-2.1836 4.6328-1.8008 7.5117 1.8359 13.465-7.1641 25.477-20.762 27.984-12.672 2.3398-25.633-6.1562-28.621-18.77-3.1211-13.152 4.2852-26.641 17.16-30.035 4.1875-1.1055 6.2148-3.3477 7.6211-6.8867 2.6641-6.7188 6.4688-12.66 11.723-17.699 2.3281-2.2305 4.8711-3.5273 8.0508-3.5898 2.4375-0.046875 4.8711-0.011718 7.5586-0.011718-1.9688-2.8438-22.402-11.855-26.594-11.785 2.9766 5.4727 5.8555 10.766 8.8438 16.273-0.66016-0.035157-1.0938 0.011719-1.4883-0.085938-8.6875-2.1836-17.375-4.332-26.027-6.6602-1.0781-0.28906-5.5078-4.8828-5.7734-5.4961-8.543-0.55078-10.922 5.6758-15.816 10.488-5.3984 5.3047-10.871 10.535-16.488 15.613-1.4531 1.3203-2.0039 2.375-1.7656 4.3438 1.8594 14.664-9.9102 27.875-24.781 27.984-13.332 0.097656-24.73-10.57-25.367-23.711-0.68359-14.027 9.5391-25.598 23.617-26.762 1.1289-0.097656 2.6406-0.12109 3.2656-0.81641 5.5664-6.1562 10.969-12.457 16.645-18.961-1.3438-0.88672-2.6055-1.8711-3.9961-2.6172-4.8711-2.5781-9.7422-5.1484-14.699-7.5469-2.0508-0.99609-2.8555-2.1602-2.4258-4.5234 0.9375-5.0391 1.5977-10.141 2.4727-15.973-1.4883 1.1406-2.3047 1.7891-3.1445 2.3984-15.277 11.113-30.59 22.199-45.805 33.395-1.0078 0.74219-1.7891 2.293-1.9922 3.5742-2.3047 14.352-15.012 23.676-29.375 21.422-13.68-2.1484-22.859-15.289-20.52-29.387 2.207-13.332 15.289-22.441 29.027-20.281 1.0547 0.16797 2.4609 0.058594 3.2773-0.51562 4.5977-3.2031 9.1445-6.5039 13.547-9.9727 2.8203-2.2188 5.3398-4.8008 8.1719-7.3672-6.1445-4.7891-11.652-9.168-17.27-13.391-1.5117-1.1406-2.1719-2.2578-1.5117-4.0781 2.1953-6 2.6992-12.238 2.2578-18.539-0.17969-2.543-0.98437-5.0391-1.5117-7.6211-3.8516 1.0547-6.9961 1.5977-9.8633 2.7852-5.2695 2.1953-10.68 4.2969-15.457 7.332-6.0859 3.875-11.387 8.9531-17.41 12.938-4.1992 2.7852-6.457 5.7344-7.1641 11.074-1.7773 13.285-15.109 22.094-28.766 19.906-13.094-2.1016-22.609-14.785-20.82-27.742 1.9062-13.871 14.293-23.914 27.637-22.094 3.2891 0.45703 5.832-0.35938 7.9453-2.4727 2.0508-2.0391 3.6953-4.4883 5.543-6.7188 0.66016-0.79297 1.3438-1.5859 2.1484-2.2422 3.6367-2.9648 7.3086-5.8789 11.137-8.9414-3.5898-4.1758-6.793-7.6797-9.6836-11.426-0.74219-0.96094-1.0781-2.8086-0.71875-3.9844 1.4141-4.6445 3.2656-9.1562 4.7773-13.766 0.94922-2.9023 1.5859-5.9023 2.3516-8.8555-0.25391-0.22656-0.51562-0.46875-0.76953-0.69531-8.0039 3.1094-15.961 6.3359-24.023 9.3008-9.3242 3.4219-18.707 6.6719-28.105 9.8633-2.0039 0.68359-3.1328 1.5469-3.8047 3.7305-3.3594 10.945-14.16 18.469-25.199 17.566-10.512-0.85156-18.215-6.0859-22.129-15.949-3.8164-9.6016-2.1367-18.66 4.8477-26.23 7.1641-7.7656 16.141-9.9375 26.375-7.0312 1.3203 0.37109 3 0.34766 4.2734-0.13281 5.7617-2.1602 11.305-4.9922 17.172-6.7812 14.773-4.4883 28.391-12.707 44.773-13.453-7.8359-9.3242-15.324-18.227-23.242-27.648-1.2344 6.1797-1.8945 11.867-3.5625 17.258-1.7031 5.4961-4.4023 10.68-6.8047 16.332-0.96094-0.89844-1.5117-1.2617-1.8594-1.7656-6.0859-8.7852-12.289-17.496-18.086-26.473-1.043-1.6094-0.9375-4.4648-0.39453-6.4805 1.0664-3.9375 2.7734-7.7148 4.2969-11.52 1.2109-3.0117 0.91016-3.6367-2.3516-3.6953-9.9258-0.17969-19.586 1.2617-28.801 5.0898-4.2852 1.7891-8.4961 3.7578-12.84 5.3984-2.4961 0.94922-3.2148 2.2695-3.1914 5.0039 0.16797 13.414-10.129 24.168-23.785 25.211-12.938 0.98437-24.434-8.6406-26.438-22.129-1.8594-12.516 7.0664-24.445 19.703-27.781 9.2383-2.4375 18.324-5.7109 27.145-9.4062 5.5664-2.3281 11.102-4.0547 17.062-4.6914 6.7578-0.71875 13.488-1.6211 20.977-2.5312-2.5781-3.3945-4.6328-6.4062-6.9844-9.168-22.43-26.375-44.734-52.848-67.43-78.984-11.688-13.465-22.285-27.562-30.023-43.691-0.74219-1.5586-1.4883-3.1797-2.5664-4.4883-0.98438-1.1992-2.4102-2.0156-3.2266-2.6758-3.1797 5.0508-5.6172 9.7812-8.8555 13.895-7.3438 9.3477-15.023 18.422-22.656 27.539-8.6758 10.355-17.867 20.305-26.039 31.031-8.3047 10.922-11.93 23.594-10.402 37.465 0.64844 5.8789 1.3438 11.746 2.0273 17.699-2.9531 0-5.8555-0.023438-8.7617 0.011719-1.6094 0.023437-3.2383 0.023437-4.8359 0.21484-9.2266 1.1055-61.645 4.7383-78.602 4.3555-14.016-0.3125-28.199-1.1055-41.941-3.707-37.703-7.1523-65.34-28.297-68.676-30.434-3.625-2.3164-6.4805-0.75781-6.0352 3.4922 0.53906 5.0742 1.9688 10.094 3.3359 15.035 1.1992 4.3438 13.094 69.66 15.984 94.68 19.262 113.05-11.746 163.91-16.598 174.01-48.234 100.5-38.668 174.67-38.91 184.04-0.035156 1.1523 0.81641 2.6523 1.7266 3.4062 1.1172 0.91016 2.6875 1.4141 4.1406 1.7266 16.68 3.5898 33.289 7.6562 50.102 10.488 22.766 3.8398 45.887 4.3086 68.914 4.5586 35.375 0.39453 70.766 0.49219 106.13-0.085937 76.715-1.2617 153.42-1.1641 230.12 0.57422 25.078 0.5625 50.195 0.14453 75.289-0.38281 19.031-0.40625 38.027-1.9688 57.059-2.5547 37.523-1.1406 75.098-0.5625 112.54-3.9258 23.375-2.1016 46.754-4.1641 70.055-6.8398 23.832-2.7461 47.629-5.9766 71.363-9.4922 19.98-2.9648 40.152-5.4609 59.723-10.223 53.555-13.031 106.13-29.52 157.69-49.055 13.523-5.125 26.809-10.895 40.078-16.68 3.5898-1.5586 6.9609-3.9609 9.8633-6.6016 1.3906-1.2734 2.6172-4.6094 1.9062-5.9414-1.8828-3.5273-5.2422-5.9648-9.5391-7.7773 0.68359 3.2383-0.35938 5.1836-2.7852 6.3945-6.5625 3.3008-12.961 6.9961-19.727 9.8047-31.836 13.211-63.875 25.871-96.961 35.688-4.0078 1.1875-8.1953 1.9062-12.359 2.4727-3.4336 0.46875-6.4805-0.64844-8.293-3.875-4.5859-8.1719-9.5742-16.176-13.535-24.648-4.5703-9.7695-8.1016-20.016-12.301-29.965-4.3555-10.309-4.8594-10.883-16.02-9.6016-9.2539 1.0664-17.172-1.332-24.91-6.0703-5.7852-3.5391-11.914-6.5391-18.059-9.4336-3.8164-1.8008-7.9336-2.9297-11.664-4.2734 1.5352 3.6484 3.2148 7.0078 4.3672 10.547 2.1133 6.4453 0.37109 12.852-0.86328 19.188-0.43359 2.1953-0.17969 3.7812 1.1289 5.6406 7.9219 11.184 5.3633 26.496-5.6172 34.668-10.906 8.1133-26.375 6.0117-34.848-4.7383-8.3281-10.57-7.043-26.352 3.707-34.559 4.332-3.3125 5.375-6.6367 4.7656-11.375-0.25391-1.9336-0.32422-3.875-0.48047-5.8203-0.21484-2.6992-1.6914-4.4883-4.2617-5.0742-2.5195-0.5625-5.1133-0.97266-7.6797-1.1172-7.4531-0.39453-13.477-2.5664-14.543-11.375-4.4766 0.86328-7.7773 3.2266-10.297 6.2891-4.1641 5.0742-7.7891 10.598-11.785 15.805-1.5234 1.9805-1.7383 3.6953-0.98438 6.1562 5.5664 18.191-10.535 35.891-28.957 31.957-11.977-2.5547-20.352-12.758-20.328-24.77 0.011719-12 8.375-22.262 20.398-24.66 2.1133-0.42188 3.168-1.3438 3.9375-3.1445 1.7383-4.0664 3.4805-8.1484 5.4102-12.133 3.5898-7.3672 9.6836-10.488 17.809-9.3125 2.2812 0.33594 4.5703 0.61328 7.2109 0.96094-19.992-15.613-43.801-20.449-67.078-26.652 12.082 7.5469 26.16 12.383 33.168 26.336zm-661.7-76.703c0.20313-53.594 44.219-97.055 98.074-96.84 53.652 0.21484 96.938 44.113 96.742 98.102-0.19141 53.605-43.945 96.938-97.68 96.73-54.02-0.19141-97.34-43.895-97.137-97.992zm356.03 220.81c-11.809 0.070312-21.527-9.5273-21.602-21.312-0.058594-11.762 9.5742-21.492 21.383-21.59 11.797-0.097656 21.457 9.5039 21.492 21.371 0.035156 11.945-9.3594 21.461-21.273 21.531zm128.96-25.727c0.011719 11.844-9.6016 21.48-21.406 21.492-11.785 0.011718-21.457-9.6719-21.457-21.469 0-11.855 9.5625-21.406 21.445-21.406 11.914-0.003906 21.406 9.4648 21.418 21.383zm177.17 99.418c-19.668 0.91016-39.348 1.5-59.016 2.2578-31.02 1.1875-62.039 3.1914-93.07 3.4688-94.223 0.82812-188.46 0.74219-282.68 1.5-54.301 0.43359-108.59 1.8008-162.89 2.7461-37.129 0.64844-74.219 0.085938-111.04-5.4492-9.875-1.4883-19.57-4.1641-29.363-6.2773-0.49219-0.10938-1.1992-0.22656-1.5352 0.011719-2.9883 2.2305-2.4102 5.4844-2.4102 8.6172 0 2.5938 1.668 3.0469 3.7188 3.4336 28.223 5.3164 56.723 8.543 85.391 8.9766 39.684 0.58984 79.414 0.94922 119.09-0.16797 53.074-1.5117 106.19-0.40625 159.25-3.168 29.785-1.5469 59.699-0.32422 89.566-0.22656 59.93 0.19141 119.86 2.1953 179.77-0.13281 40.199-1.5586 80.375-3.8984 120.56-5.9297 3.625-0.17969 7.2344-0.71875 11.004-1.1055-0.19141-3.8516-0.35938-7.2852-0.53906-10.68-8.8516 0.74609-17.324 1.7305-25.82 2.125zm-755.43 16.238c0.046875-17.281 0.085937-34.559 0.046875-51.84 0-0.64844-0.69531-1.7148-1.2617-1.8711-4.6445-1.2969-9.3242-2.4258-13.883-3.5742-0.30078 0.52734-0.50391 0.70703-0.50391 0.88672-0.035156 17.281-0.070312 34.559-0.023437 51.84 0 0.64844 0.69531 1.7031 1.2617 1.8594 4.6328 1.2969 9.3125 2.4258 13.871 3.5742 0.30078-0.52734 0.49219-0.70703 0.49219-0.875zm612.96-309.68c1.3672 8.6758 2.7344 17.363 4.0781 25.922 7.0547-5.6758 18.086-9.9844 25.656-9.9844-9.6953-5.6172-19.391-11.23-29.09-16.848-0.22656 0.29688-0.42969 0.60938-0.64453 0.91016zm-57.699-45.133c4.1406 10.355 0.25391 20.605-0.35938 31.188 7.4297-5.4102 14.566-10.621 21.156-15.422-6.5742-5.3164-13.355-10.801-20.137-16.273-0.22656 0.16016-0.44141 0.33984-0.66016 0.50781zm250.3 118.95c4.9336 3.9609 10.117 7.6562 14.711 11.965 4.6914 4.4023 8.8203 9.4062 13.645 14.629-1.8828-7.7266-3.6484-14.914-8.4102-20.855-1.1523-1.4414-2.9297-2.7969-4.668-3.2539-4.9805-1.2852-10.066-2.0742-15.121-3.0586-0.046875 0.19141-0.10938 0.38281-0.15625 0.57422zm-55.738 50.316c-0.68359 1.043-0.26563 3.4219 0.51562 4.6797 2.2188 3.625 9.6953 5.7852 13.691 4.3203 2.9023-1.0547 3.8047-3.3711 1.957-5.8438-2.6875-3.6133-6.3828-5.6875-11.977-6.3477-1.0312 0.74609-3.168 1.6094-4.1875 3.1914zm-299.92-151.03c-3.5742-0.83984-6.3594 1.4414-6.0859 4.9805 0.34766 4.4648 6.5742 10.309 11.039 10.379 2.5078 0.046875 3.8281-1.1289 3.8867-2.7734 0.089844-5.1562-4.7969-11.625-8.8398-12.586zm149.52 106.33c-1.6562-3.4219-8.4961-7.3906-12.215-6.5273-1.7383 0.40625-4.0195 1.8828-4.5 3.3711-0.48047 1.4531 0.48047 4.3086 1.7656 5.2188 2.6992 1.9219 6.0117 2.9766 9.0703 4.3906 5.1133-0.67969 7.4883-3.1289 5.8789-6.4531zm83.09 25.227c-2.6172-3.8164-6.4336-6.1094-11.09-6.4062-2.4844-0.16797-4.7266 0.85156-5.6055 3.5039-0.83984 2.5547 0.35938 4.6562 2.4258 5.7852 2.8672 1.5586 6.0234 2.5938 9.0469 3.8516 4.957-0.75 7.3711-3.5938 5.2227-6.7344zm-334.22-273.06c-3.4453-0.75781-6.2031 1.4141-6.0352 4.7656 0.23828 4.5586 6.6133 10.609 11.172 10.633 2.543 0.011719 3.7188-1.332 3.8633-3.6016-0.027344-4.4883-5.0078-10.91-9-11.797zm49.02 72.852c-1.668-0.46875-3.9961-0.30078-5.3867 0.57422-1.0781 0.67188-1.7539 2.9883-1.5977 4.4531 0.46875 4.1289 5.9883 9.2383 10.105 9.9102 2.9023 0.46875 4.668-0.98438 4.6445-3.8281-0.027344-3.8477-4.0938-10.078-7.7656-11.109zm440.47 237.17c-3.8281 1.332-4.4766 4.6562-1.3203 7.1055 3.6719 2.8555 7.9805 3.9609 12.457 2.5195 1.4883-0.48047 3.2891-2.1484 3.5742-3.5625 0.30078-1.4297-0.64844-3.8164-1.8477-4.6797-1.9688-1.4141-4.5859-1.957-6.3594-2.6406-2.7344 0.50391-4.7031 0.63672-6.5039 1.2578zm-326.06-110.64c-3.4805-0.68359-6.2266 1.5469-5.9883 4.8477 0.33594 4.4414 6.457 10.332 10.945 10.535 2.6406 0.12109 4.0781-1.2344 4.043-3.8398-0.046875-4.4609-4.957-10.75-9-11.543zm-6.4453-126.04c-0.52734 5.8203-1.0664 11.629-1.6094 17.566 4.0664-0.81641 7.7383-1.5469 11.879-2.375-3.3477-5.4609-6.457-10.559-9.5742-15.66-0.23828 0.15625-0.46484 0.3125-0.69531 0.46875zm-56.145 281.53c-6.4219 0.058594-11.734 5.4102-11.746 11.832-0.011719 6.5508 5.5312 12.012 12.047 11.855 6.5039-0.15625 11.605-5.4492 11.531-11.988-0.085937-6.4766-5.4141-11.746-11.832-11.699zm95.508 7.5977c-0.035157 6.5742 5.3867 11.879 12.047 11.809 6.457-0.070313 11.734-5.4609 11.652-11.879-0.085937-6.4922-5.3516-11.641-11.891-11.629-6.5195 0.011719-11.773 5.2188-11.809 11.699z"/>
</svg>
