<?xml version="1.0" encoding="UTF-8"?>
<svg width="1200pt" height="1200pt" version="1.1" viewBox="0 0 1200 1200" xmlns="http://www.w3.org/2000/svg">
 <path d="m281.23 340.2c-6.5586-0.023437-11.879 5.2969-11.855 11.855v11.785h283.37v-11.785c0.023437-6.5234-5.2383-11.832-11.762-11.855zm377.86 0c-6.5586-0.023437-11.879 5.2969-11.855 11.855l0.023437 11.785h283.37v-11.785c0.023438-6.5234-5.2617-11.832-11.785-11.855zm-401.47 47.23c-6.5586-0.023438-11.879 5.3203-11.855 11.879v23.523c-0.023437 6.5586 5.2969 11.879 11.855 11.855h306.99c6.5234-0.023437 11.785-5.332 11.762-11.855v-23.523c0.023438-6.5234-5.2383-11.855-11.762-11.879zm377.86 0c-6.5586-0.023438-11.879 5.3203-11.855 11.879v23.523c-0.023437 6.5586 5.2969 11.879 11.855 11.855h307.01c6.5234-0.023437 11.785-5.332 11.762-11.855v-23.523c0.023438-6.5234-5.2383-11.855-11.762-11.879zm-364.8 70.871 2.7227 23.641h275.34l2.7227-23.641zm377.86 0 2.7227 23.641h275.37l2.7227-23.641zm-381.89 47.254c-7.1484 0.66406-11.898 6.5859-11.117 13.145l20.918 175.74h269.25l20.918-175.74c0.79297-6.9805-4.6445-13.109-11.668-13.145zm377.88 0c-7.1484 0.66406-11.898 6.5859-11.117 13.145l20.918 175.74h269.25l20.918-175.74c0.79297-6.9805-4.6445-13.109-11.668-13.145zm-233.42 47.234c32.469 0 59.016 26.551 59.016 59.016 0 32.469-26.551 59.016-59.016 59.016-32.469 0-59.086-26.551-59.086-59.016 0-32.469 26.621-59.016 59.086-59.016zm377.88 0c32.469 0 59.016 26.551 59.016 59.016 0 32.469-26.551 59.016-59.016 59.016-32.469 0-59.109-26.551-59.109-59.016 0-32.469 26.641-59.016 59.109-59.016zm-531.36 165.27c-6.5586-0.023438-11.879 5.2969-11.855 11.855v23.641c0.023437 6.5234 5.332 11.785 11.855 11.762h684.86c6.4883-0.023437 11.762-5.2734 11.785-11.762v-23.641c0.023437-6.5234-5.2617-11.832-11.785-11.855zm28.734 70.871 6.8281 37.547c1.5 8.2539 4.8711 16.184 10.746 22.531 5.875 6.3477 14.719 10.77 24.492 10.77h165.31c9.7734 0 18.617-4.4219 24.492-10.77 5.875-6.3477 9.2461-14.277 10.746-22.531l2.5156-13.93h137.05l2.5156 13.93c1.5 8.2539 4.8711 16.184 10.746 22.531 5.875 6.3477 14.719 10.77 24.492 10.77h165.31c9.7734 0 18.617-4.4219 24.492-10.77 5.875-6.3477 9.2461-14.277 10.746-22.531l6.8281-37.547z"/>
</svg>
