<?xml version="1.0" encoding="UTF-8"?>
<svg width="3600pt" height="3600pt" version="1.1" viewBox="0 0 3600 3600" xmlns="http://www.w3.org/2000/svg">
 <g>
  <path d="m1800 0c-236.38 0-470.45 46.559-688.83 137.02-218.39 90.457-416.82 223.05-583.96 390.2-167.15 167.14-299.73 365.57-390.2 583.96-90.457 218.39-137.02 452.46-137.02 688.84 0.0039062 477.39 189.65 935.23 527.21 1272.8 337.57 337.57 795.4 527.21 1272.8 527.2 477.39 0 935.22-189.64 1272.8-527.21s527.21-795.4 527.21-1272.8c0-477.39-189.64-935.23-527.2-1272.8-337.56-337.56-795.4-527.21-1272.8-527.21zm0 203.28c207.36 0 412.69 41.305 604.27 121.55 191.57 80.242 365.64 197.86 512.27 346.13 146.62 148.27 262.93 324.29 342.29 518.02 79.355 193.72 120.19 401.35 120.19 611.04 0 423.47-166.36 829.6-462.48 1129-296.12 299.44-697.75 467.66-1116.5 467.67-207.36 0-412.7-41.301-604.27-121.54s-365.65-197.85-512.27-346.12c-146.63-148.27-262.94-324.29-342.29-518.01-79.355-193.72-120.2-401.36-120.2-611.04-0.003906-209.69 40.84-417.32 120.19-611.04 79.355-193.72 195.66-369.75 342.29-518.02 146.63-148.27 320.7-265.88 512.28-346.12 191.58-80.242 396.91-121.54 604.27-121.54z"/>
  <path d="m2893.3 2130c-2.5195-15.113-7.5586-20.152-15.113-25.191-5.0391-2.5195-10.078-10.078-12.594-15.113v-2.5195c-5.0391-15.113-37.785-85.648-50.383-95.723-12.594-10.078-52.898-32.746-83.129-32.746-118.39-5.0391-342.59-42.824-392.97-57.938-5.0391-2.5195-10.078-2.5195-12.594-7.5586-7.5586-7.5586-30.23-17.633-37.785-22.672-2.5195-2.5195-5.0391-2.5195-7.5586-5.0391-7.5586-7.5586-25.191-20.152-37.785-30.23-17.633-12.594-138.55-65.496-168.78-85.648-30.23-17.633-229.23-138.55-246.87-151.14l-2.5195-2.5156c-7.5586-7.5586-52.898-40.305-57.938-42.824-7.5586-5.0391-47.863-73.051-52.898-83.129-5.0391-10.078-15.113-35.266-20.152-45.344s-27.711-50.383-35.266-60.457c-7.5586-10.078-27.711-25.191-40.305-32.746-12.594-7.5586-12.594-7.5586-40.305-45.344 0-2.5195-2.5195-2.5195-2.5195-5.0391-15.113-32.746-35.266-45.344-47.863-52.898-5.0391-2.5195-10.078-5.0391-12.594-10.078-17.633-20.152-35.266 2.5195-37.785 12.594-5.0391 10.078-25.191 55.418-30.23 62.977-5.0391 7.5586-22.672 70.535-32.746 98.242-2.5195 7.5586-7.5586 15.113-15.113 17.633l-25.191 12.594s-136.03 75.57-229.23 90.688c-78.09 12.594-105.8-32.746-113.36-45.344-2.5195-2.5195-2.5195-5.0391-5.0391-7.5586l-57.941-65.488c0-2.5195-2.5195-2.5195-2.5195-5.0391-17.633-27.711-45.344-27.711-57.938-30.23-20.152-2.5195-40.305 32.746-45.344 42.824 0 2.5195-2.5195 2.5195-2.5195 5.0391-143.58 460.99-133.51 617.17-125.95 667.55 0 10.078-2.5195 17.633-7.5586 25.191-7.5586 7.5547-10.074 20.152-10.074 22.668-2.5195 7.5586-5.0391 93.203-2.5195 110.84 2.5195 17.633-7.5586 32.746-7.5586 80.609s12.594 52.898 12.594 52.898 68.016 42.824 251.91 65.496 571.82 22.672 571.82 22.672 591.98-10.078 780.91-17.633c183.89-5.0391 433.28-80.609 450.91-85.648h2.5195c12.594-5.0391 113.36-45.344 128.47-90.688 17.629-47.859-5.043-103.28-12.598-130.99zm-1005.1-370.3c37.785-52.898 62.977-35.266 80.609-27.711 0 2.5195 2.5195 2.5195 2.5195 2.5195 30.23 27.711 25.191 60.457 17.633 80.609-2.5195 10.078-12.594 15.117-22.672 10.078l-73.051-40.305c-7.5586-5.0391-10.078-15.113-5.0391-25.191zm-118.39-57.938c42.824-57.938 68.016-37.785 85.648-30.23h2.5195c32.746 30.23 25.191 65.496 17.633 85.648-2.5195 7.5586-10.078 12.594-17.633 7.5586l-80.609-45.344c-7.5586-2.5195-10.078-12.594-7.5586-17.633zm-25.191-100.76c0 2.5195 2.5195 2.5195 2.5195 2.5195 27.711 30.23 20.152 62.977 12.594 83.129-5.0391 10.078-15.113 12.594-22.672 7.5586l-73.051-45.344c-7.5586-5.0391-7.5586-15.113-2.5195-25.191 42.824-50.383 65.496-32.746 83.129-22.672zm-287.17-254.42c5.0391-12.594 40.305-93.203 40.305-93.203 10.078-22.672 40.305 20.152 47.863 30.23 7.5586 10.078 10.078 10.078 25.191 27.711 2.5195 2.5195 12.594 17.633 10.078 17.633-12.594 0-27.711 12.594-42.824 12.594-15.113 0-78.09 47.863-95.723 62.977-2.5195 0-5.0391 0-5.0391-2.5195 2.5156-15.117 10.074-35.27 20.148-55.422zm-68.016 1002.6s-226.71 2.5195-264.5 0c-37.785-2.5195-45.344-22.672-47.863-45.344s37.785-25.191 37.785-25.191l274.58 25.191s32.746 5.0391 35.266 25.191c0.003906 22.672-35.266 20.152-35.266 20.152zm1393-340.07c-12.594 5.0391-128.47 60.457-425.72 105.8-146.11 22.672-193.96 120.91-206.56 163.74-2.5195 10.078-15.113 15.113-25.191 12.594-35.266-12.594-113.36-37.785-138.55-45.344-32.746-12.594-151.14-50.383-241.83-35.266-90.688 15.113-143.59 40.305-153.66 35.266-10.078-5.0391-80.609-108.32-166.26-158.7-88.168-50.383-244.35-156.18-264.5-176.33-20.152-17.633-133.51-100.76-153.66-103.28-17.633-5.0391-78.09-37.785-151.14 42.824-37.785 40.305-55.418 68.016-68.016 85.648-7.5586 12.594-27.711 12.594-35.266-2.5195v-10.078c0-12.594 65.496-254.42 100.76-385.41 5.0391-20.152 35.266-17.633 37.785 2.5195l12.594 68.016c0 5.0391 2.5195 7.5586 7.5586 12.594 17.633 15.113 78.09 60.457 128.47 52.898 60.457-7.5586 151.14-32.746 277.09-108.32 0 0 2.5195 0 2.5195-2.5195 70.535-52.898 95.723-83.129 100.76-90.688l2.5195-2.5195c12.594-10.078 105.8-85.648 136.03-85.648 35.266 0 78.09 7.5586 95.723 47.863 17.633 40.305 35.266 65.496 17.633 103.28-15.113 37.785-73.051 108.32-80.609 120.91 2.5195 7.5586-17.633 42.824 25.191 68.016 42.824 25.191 239.31 118.39 259.46 128.47 0 0 2.5195 0 2.5195 2.5195 7.5586 5.0391 57.938 35.266 108.32 7.5586 57.938-30.23 98.242-50.383 98.242-50.383s20.152-15.113 57.938-2.5195 108.32 42.824 125.95 65.496c17.633 20.152 25.191 60.457 32.746 75.57 7.5586 15.113 15.113 35.266 30.23 27.711 15.113-5.0391 17.633-37.785 15.113-45.344 0-7.5586 319.92 42.824 362.74 45.344l45.344 2.5195c12.598 5.0391 40.305 22.672 27.711 27.711z"/>
  <path d="m1636.3 1467.5c0 19.477-15.789 35.266-35.266 35.266-19.477 0-35.266-15.789-35.266-35.266 0-19.48 15.789-35.27 35.266-35.27 19.477 0 35.266 15.789 35.266 35.27"/>
  <path d="m2147.6 1860.5c0 19.477-15.789 35.27-35.266 35.27-19.477 0-35.266-15.793-35.266-35.27 0-19.477 15.789-35.266 35.266-35.266 19.477 0 35.266 15.789 35.266 35.266"/>
  <path d="m2253.4 1910.8c0 19.477-15.789 35.266-35.266 35.266-19.477 0-35.27-15.789-35.27-35.266 0-19.477 15.793-35.266 35.27-35.266 19.477 0 35.266 15.789 35.266 35.266"/>
 </g>
</svg>
