<?xml version="1.0" encoding="UTF-8"?>
<svg width="1200pt" height="1200pt" version="1.1" viewBox="0 0 1200 1200" xmlns="http://www.w3.org/2000/svg">
 <path d="m331.69 90.938c31.875 72.75 127.5 237.19 343.31 244.5l36.375 87.938h-121.5c-12.375 0-22.5 10.125-22.5 22.5s10.125 22.5 22.5 22.5h137.06c0.9375 0 2.0625-0.1875 3-0.375l30.188 72.938h-130.31c-12.375 0-22.5 10.125-22.5 22.5s10.125 22.5 22.5 22.5h137.06c3.9375 0 7.5-1.125 10.688-2.8125l31.312 75.562h-128.62c-12.375 0-22.5 10.125-22.5 22.5s10.125 22.5 22.5 22.5h137.06c3.375 0 6.375-0.75 9.375-2.0625l32.062 77.438c3.375 8.4375 11.625 13.875 20.812 13.875h98.25c115.12 0 210.19 87.938 221.44 200.25l-451.5-0.5625-660.75-656.25zm868.31 1018.1h-504.56l-695.44-690.94 54.562-51 667.88 663.38c4.125 4.125 9.9375 6.5625 15.75 6.5625l461.81 0.5625z"/>
</svg>
