<?xml version="1.0" encoding="UTF-8"?>
<svg width="1200pt" height="1200pt" version="1.1" viewBox="0 0 1200 1200" xmlns="http://www.w3.org/2000/svg">
 <path d="m1182.8 797.68c-1.8359-1.7344-3.9922-3.0625-6.3711-3.9297l-277.19-101.7c-0.13672-4.0898-2.1055-8.0312-5.8633-10.262l-200.91-119.39c-0.42188-2.1055-1.1406-4.1875-2.3281-6.1211l-37.613-61.285-46.734-139.19-11.773-100.93c-2.4297-20.758-17.859-37.277-38.418-41.098l-84.461-15.738c-1.4609-0.26172-2.9609-0.32031-4.3984-0.28516l-279.98 15.23c-22.605 1.2383-41.207 18.418-44.23 40.875l-3.668 27.254-50.355 103.68c-0.89062 1.8477-1.4766 3.8438-1.7344 5.8867-0.24609 2.0195-24.773 202.32-54.195 266.07-27.688 60.02-12.617 131.37-5.6523 156.96-37.812 53.168-35.855 108.95 5.8867 161.84 3.3828 4.3008 8.5156 6.8906 13.98 7.0625l590.33 19.645h298.47c0.65625 0 1.3125-0.039063 1.9688-0.11328 57.828-6.1602 247.43-32 259.09-105.42 11.293-71.148-9.5508-94.996-13.852-99.059zm-637.7 45.742-153.29-28.801 18.254-14.438c5.3555-4.2266 12.047-6.543 18.852-6.543h90.609c1.6602 3.6055 4.9062 6.2344 8.8242 7.0039l235.19 46.508c4.5977 0.90625 9.1719 1.3398 13.695 1.3398 25.332 0 48.805-13.832 61.039-36.996l9.3828-17.785 230.18 4.3867h0.24609c0.51953 0 0.98047-0.23438 1.4883-0.29688l53.613 19.668c-158.75 82.168-584.31 26.449-588.08 25.953zm313.04 48.098c1.9688 5.2188 11.129 48.422 4.2617 73.566h-53.328v-77.879c9.8164 0.14844 19.691 0.23438 29.633 0.23438 6.2227 0 12.48-0.050781 18.727-0.125 0.023437 1.4141 0.18359 2.8398 0.70703 4.2031zm-124.68 73.566c-4.6094-26.461-4.4375-53.219 0.95312-79.641 0.050782-0.23438-0.039062-0.45703 0-0.70703 16.16 0.79297 32.828 1.4609 49.859 1.9336v78.414zm-76.379 0.015625c-6.1953-28.332-5.9492-56.973 0.83203-85.277 16.172 1.2773 33.535 2.5039 51.781 3.582-5.207 27.117-5.5156 54.52-1.2773 81.684zm-76.098-1.8984c-6.8672-30.945-6.8164-61.383 0.21094-90.57 14.266 1.5508 31.777 3.3203 51.816 5.0938-6.418 28.949-6.9141 58.176-1.3242 87.164zm-76.762-2.5508c-6.8789-30.797-6.8398-63.492 0.074219-99.691l36.871 6.9297c1.7109 0.22266 7.0391 0.92969 15.281 1.9219-6.7773 30.004-7.1016 61.062-0.94141 92.555zm-77.062-2.5664c-6.3086-34.676-6.2461-72.152 0.14844-111.59l52.66 9.8906c-6.9883 36.684-7.3984 71.387-1.2148 103.41zm-75.242-2.5039c-9.2461-36.227-9.3828-76.664-0.50781-123.34l51.531 9.6797c-6.6289 40.465-7.0156 79.168-1.1016 115.32zm-79.863-2.6641c-8.4766-42.324-7.0898-87.66 4.0039-134.83l50.973 9.5781c-8.9961 47.379-9.2188 89.109-0.73047 127.07zm-157.61-5.2422c-9.3945-41.332-5.5508-83.223 11.637-124.64l48.582-4.9961c-12.219 45.805-15.195 89.852-8.8867 131.34zm86.73-132.36 12.344-1.2656c12.68-1.3008 25.418-1.2383 38.035 0.097656-11.055 47.961-12.668 94.289-4.7969 137.94l-55.734-1.8594c-7.1875-42.105-3.8047-87.418 10.152-134.91zm112.73-227.89-12.828-217.88c22.852 7.0273 39.102 16.832 47.07 29.199l14.277 232.71c1.8945 31.047-3.4688 62.609-15.566 91.266l-32.594 77.32-43.512-8.1797c-5.9609-1.1289-11.973-1.8945-18.008-2.5039l20.027-33.574c30.387-50.938 44.613-109.16 41.133-168.36zm262.37 153.36 184.49 80.543-209.7-41.469zm307.22-15.035c0.33594 0.14844 0.62109 0.34766 0.96484 0.47266l124.75 45.781-148.62-2.8398zm-67.148 74.188c-2.8984 5.5039-6.8672 10.074-11.453 13.805-0.24609-0.125-0.41016-0.35938-0.66797-0.47266l-214.34-93.582 87.312-135.31c0.87891-0.13672 1.7617-0.39844 2.6289-0.66797l190.78 113.37zm-198.38-205.99c-0.050782-0.039062-0.11328-0.050781-0.16016-0.085937 0.0625-4.7461 0.71875-12.395 3.4961-20.512 9.0977-2.0312 19.332-4.7578 30.637-8.2539l4.0039 6.5312-22.445 34.789zm-48.199-39.477c-0.48438-1.3398-0.99219-2.6875-1.9102-3.8789l-16.531-21.516c-2.0938-2.7266-5.043-4.2891-8.1562-4.9688 0.64453-2.3281 1.6836-4.9062 3.5195-7.5859 2.6523-3.8789 7.7461-9.0469 17.324-13.953 14.922 2.0938 32.547 3.4844 53.145 3.9531l0.76953 2.3047c0.44531 1.3242 1.043 2.6133 1.7852 3.8164l8.4648 13.793c-10.855 6.8047-18.676 15.59-24.094 25.023-16.867 3-28.145 3.2852-34.316 3.0117zm-57.195-108.9-3.5703-14.027c-0.76953-3.0352-2.6406-5.3906-4.9062-7.2266 11.277-10.992 34.852-25.344 78.449-20.906l20.996 62.535c-16.832 2.3672-31.258 6.0742-43.266 11.078-30.117-4.9336-45.074-12.469-52.113-17.684 3.8047-3.3477 5.7383-8.5391 4.4102-13.77zm44.516-186.38 11.031 94.586c-45.832-11.91-69.328-24.441-81.164-33.586 3.4336-3.3594 5.207-8.2656 3.9414-13.25l-3.5703-14.027c-1.5117-5.9492-6.668-9.8516-12.469-10.285l0.003906-46.07 73.965 13.77c4.4102 0.82031 7.7422 4.375 8.2617 8.8633zm-368.3-9.0742 261.28-14.215v52.09l-5.9727 1.5234c-7.4609 1.8945-11.961 9.4805-10.062 16.93l3.5703 14.027c1.8945 7.4609 9.4805 11.961 16.93 10.062l6.0234-1.5234c12.715 14.402 40.676 32.953 101.79 48.879-66.676 1.8086-88.328 44.703-89.367 46.859-0.26172 0.54687-0.24609 1.1289-0.42188 1.6836l-6.7539 1.7227c-7.4609 1.8945-11.961 9.4805-10.062 16.93l3.5703 14.027c1.8945 7.4609 9.4805 11.961 16.93 10.062l5.7383-1.4609c5.082 7.6953 17.984 19.656 49.637 28.344-1.9219 2.0703-3.7812 4.1875-5.3281 6.4453-10.312 15.047-9.1328 29.25-8.0078 35.211-4.0039 4.8945-4.5 11.922-0.48438 17.152l16.531 21.516c4.6836 6.0977 13.434 7.25 19.531 2.5547l2.418-1.8594c0.69531 0.30859 1.2773 0.76953 2.043 0.95313 1.2383 0.29687 6.2695 1.3516 15.738 1.3516 5.3281 0 12.219-0.39844 20.473-1.4023-1.6484 8.8359-1.8711 17.027-1.2031 23.289 0.023438 0.28516 0.1875 0.51953 0.23438 0.80469l-4.1016 5.1055c-4.8203 6-3.8672 14.773 2.1328 19.582l15.887 12.766c1.0664 0.85547 2.2812 1.3008 3.4844 1.7969l-82.281 127.53h-99.754c-12.367 0-24.527 4.2266-34.23 11.898l-32.742 25.902c-0.73047 0.58203-1.1641 1.3516-1.7344 2.043l-21.008-3.9531 30.512-72.363c13.559-32.172 19.594-67.582 17.449-102.43l-14.465-235.72c-0.11328-1.8359-0.63281-3.6328-1.5234-5.2422-22.223-40.141-86.531-52.301-136.59-55.434-25.566-1.5977-47.766-17.461-57.891-41.418l-1.3867-3.2969 4.0391-30.027c0.67188-4.7656 4.625-8.4336 9.4336-8.6953zm-122.43 422.23c30.078-65.188 53.59-247.04 56.961-274.08l39.238-80.816c15.852 23.734 41.492 39.039 70.504 40.848 15.664 0.98047 29.93 2.7148 42.844 5.0938l13.273 225.5c3.1992 54.223-9.8398 107.56-37.664 154.23l-25.73 43.129c-0.41016 0.69531-0.50781 1.4609-0.76953 2.1953-4.6719 0.16016-9.3555 0.44531-14.016 0.92969l-147.96 15.219c-5.5547-20.398-19.434-82.973 3.3203-132.25zm-4.8945 157.35 37.043-3.8047c-14.34 40.156-17.535 80.707-9.5664 120.95l-32-1.0664c-27.91-39.371-26.363-76.465 4.5234-116.07zm873.15 135.39h-46.82c5.1172-27.637-1.2891-63.766-5.2539-78.215 18.914-0.49609 37.762-1.375 56.379-2.6289 8.4883 14.328 25.258 48.879 22.098 74.137-0.14844 1.1641 0.085938 2.2539 0.24609 3.3594-8.9141 1.2422-17.824 2.3945-26.648 3.3477zm225.34-74.184c-4.0508 25.469-85.836 52.336-174.1 67.059 2.1055-27.648-10.941-58.484-19.867-75.883 76.602-7.0391 146.52-21.949 192-50.031 0.58203-0.35938 0.92969-0.90625 1.4258-1.3398 2.8047 8.8477 5.8164 27.004 0.54688 60.195z"/>
</svg>
