<?xml version="1.0" encoding="UTF-8"?>
<svg width="1200pt" height="1200pt" version="1.1" viewBox="0 0 1200 1200" xmlns="http://www.w3.org/2000/svg">
 <defs>
  <clipPath id="a">
   <path d="m222.14 402h755.71v396h-755.71z"/>
  </clipPath>
 </defs>
 <path d="m600 0c-78.793 0-156.82 15.52-229.61 45.672s-138.94 74.348-194.65 130.07c-55.719 55.715-99.914 121.86-130.07 194.65s-45.672 150.82-45.672 229.61c0 159.13 63.215 311.74 175.74 424.26 112.52 112.52 265.13 175.73 424.27 175.73 159.13 0 311.74-63.215 424.26-175.74 112.52-112.52 175.74-265.13 175.74-424.26 0-159.13-63.215-311.74-175.73-424.27-112.52-112.52-265.13-175.74-424.26-175.74zm0 67.762c69.121 0 137.56 13.766 201.42 40.516 63.859 26.746 121.88 65.953 170.76 115.38s87.645 108.1 114.09 172.67c26.453 64.574 40.066 133.79 40.066 203.68 0 141.16-55.457 276.53-154.16 376.34-98.707 99.816-232.58 155.89-372.18 155.89-69.121 0-137.57-13.766-201.43-40.516-63.855-26.746-121.88-65.949-170.76-115.37-48.875-49.422-87.645-108.1-114.1-172.67-26.449-64.574-40.066-133.79-40.066-203.68 0-69.898 13.613-139.11 40.066-203.68 26.449-64.574 65.219-123.25 114.1-172.68 48.875-49.422 106.9-88.625 170.76-115.38 63.859-26.746 132.3-40.512 201.43-40.512z" fill="#fff"/>
 <g clip-path="url(#a)">
  <path d="m977.73 671.7c-0.03125-0.53906-0.10938-1.0781-0.21484-1.6016l-6.543-31.953c-3.5703-17.473-17.172-31.074-34.641-34.648l-99.902-20.484-84.492-22.871-47.586-20.816c2.457-4.3945 2-9.9766-1.7383-13.711-4.5117-4.5117-11.816-4.5117-16.328 0l-4.043 4.043-16.574-7.25c1.9336-4.2578 1.2227-9.4062-2.2695-12.91-4.5117-4.5117-11.816-4.5117-16.328 0l-3.3164 3.3164-18.883-8.2578c1.5-4.0938 0.67578-8.8516-2.6094-12.141-4.5117-4.5117-11.816-4.5117-16.328 0l-2.6797 2.6797-19.5-8.5273c3.4336-4.1094 3.6406-10.199 0.18359-14.562-3.957-5.0039-11.223-5.8438-16.219-1.8867l-2.6094 2.0703-40.574-55.184c-1.5391-2.0859-3.7344-3.6016-6.2344-4.2969l-33.637-9.2773c-9.4297-2.6016-19.215 0.39453-25.562 7.8125-6.3594 7.4141-7.8125 17.551-3.9336 26.18l24.887 59.473c-23.078 13.441-42.277 27.391-48.949 32.371-8.707-0.42969-24.664-19.516-40.273-57.547-2.7266-6.6289-8.2305-11.617-15.102-13.672-6.8984-2.0625-14.285-0.92188-20.27 3.1484l-39.812 27.195c-2.4805 1.6953-4.1953 4.2812-4.8047 7.2188l-0.72266 3.5391c-3.5781 0.76172-6.6445 3.2109-8.1602 6.6445l-24.379 55.484c-1.8555 4.2266-1.0156 9.1445 2.1328 12.523l5.0352 5.3945-4.6484 25.91c-6.7656 30.367-16.68 45.262-29.52 44.246-3.7422-0.25391-7.4062 1.2539-9.8086 4.1484-11.414 13.816-15.617 28.145-12.508 42.629l-5.3555 30.754c-2.5234 14.496 1.2461 29.445 10.34 41.016 9.0898 11.562 22.723 18.75 37.395 19.723l149.02 9.875h212.97c2.2773 0 4.5117-0.67578 6.4062-1.9414l12.949-8.6289 13.516 8.7305c1.8711 1.1992 4.043 1.8398 6.2578 1.8398 0.11719 0 0.23047 0 0.33984-0.007813l108.41-3.2109c2.6484-0.078125 5.1875-1.0625 7.1992-2.7852l12.469-10.746 13.465 7.5742c2.4727 1.3945 5.3789 1.8086 8.1445 1.207 6.582-1.4453 160.98-36.418 155.94-117.83zm-23.008 2.1875c0.26953 6.3672-1.1094 12.449-3.7422 18.258-0.19141 0.0625-0.39453 0.039063-0.58594 0.11719-20.754 8.7227-42.801 14.102-64.84 17.168-0.42188-0.53906-0.80859-1.1016-1.3867-1.5234l-73.129-53.793c38.336-3.3555 100.03-10.645 129.07-24.242 4.1562 3.0781 7.1523 7.6211 8.2383 12.902zm-478.37-245.66c-0.13281-0.29297-0.47656-1.0703 0.28516-1.957s1.5781-0.66016 1.8945-0.57812l29.789 8.207 27.496 37.395c-11.5 3.4258-23.578 8.5742-35.355 14.512zm-143.82 76.594 35.957-24.555-6.5117-9.5391 7.4883 9.7617c21.93 53.422 45.203 77.34 69.195 70.926 1.4766-0.39453 2.8633-1.0703 4.0703-2 0.54688-0.41406 50.82-38.797 92.711-53.738l-16.312 12.918c-4.9961 3.957-5.8438 11.223-1.8867 16.219 2.2773 2.8789 5.6484 4.3789 9.0586 4.3789 2.5078 0 5.043-0.81641 7.1602-2.4922l30.043-23.793 22.207 9.7148-0.71484 0.71484c-4.5117 4.5039-4.5117 11.824 0 16.328 2.2539 2.2539 5.2109 3.3789 8.168 3.3789s5.9102-1.125 8.168-3.3789l7.1055-7.1055 17.781 7.7734-2.2383 2.2383c-4.5117 4.5039-4.5117 11.824 0 16.328 2.2539 2.2539 5.2109 3.3789 8.168 3.3789s5.9102-1.125 8.168-3.3789l8.6289-8.6289 15.773 6.8984-0.80078 0.80078c-4.5117 4.5039-4.5117 11.824 0 16.328 2.2539 2.2539 5.2109 3.3789 8.168 3.3789s5.9102-1.125 8.168-3.3789l7.1914-7.1914 56.039 24.516c0.52344 0.23047 1.0625 0.42188 1.6094 0.57031l86.016 23.254 83.59 17.168c-33.824 9.3828-85.754 14.562-110.12 16.59-5.6367 0.46875-10.262 4.2969-11.801 9.7305-1.5391 5.457 0.42188 11.145 4.9805 14.504l65.699 48.336c-3.2734 0.23828-6.5352 0.4375-9.7773 0.59375-0.49219-2.0938-1.7617-3.9805-3.8086-5.0664l-211.98-112.18c4.3398-5.0273 5.9414-11.77 4.1016-18.414-2.1875-7.9141-8.6055-13.5-16.734-14.594l-61.898-8.2891c-18.375-2.457-36.828 0.67578-53.129 8.9766l-35.047 16.488-146.02-62.516c0.80078-1.207 1.4414-2.5312 1.7461-4.0195zm-24.625 76.059c4.8438 1.9766 42.707 18.168 27.082 33.793-12.18 12.18-36.965 30.012-49.473 38.766 7.2578-10.375 13.023-24.934 17.219-43.777zm317.55 4.9648-45.902 37.496c-1.9336-0.63281-3.8789-1.2617-5.9414-1.9023l-79.512-34.039 22.879-10.762c13.727-6.9805 29.035-9.5898 44.324-7.543l61.898 8.2891c2.8008 0.37891 3.6875 2.5234 3.9414 3.4336 0.25391 0.91016 0.60937 3.2031-1.6875 5.0273zm-116.63 62.184s23.902 9.8906-6.582 30.223l-27.074-12.68c-43.961-22.832-76.715-3.6172-87.34 4.2812l-40.543-12.141 32.602-15.457s46.188-32.547 76.977-14.988zm40.914 52.445-0.03125 0.007813-0.54688-0.25391zm46.75-71.09 28.789-23.516 201.9 106.84c-50.812-0.91797-94.691-10.539-113.06-15.195-7.2109-1.8242-14.672-2.2031-22.191-1.1016l-30.152 4.418-32.5-12.871c-9.1133-3.6016-18.977-4.7578-28.598-3.4961l31.953-16.719c0.007812 0.027344 20-16.277-36.141-38.363zm-350.84 101.45 5.7656-33.117c0.29297-1.6875 0.20703-3.4102-0.24609-5.0586-1.0078-3.6328-1.6094-8.875 1.793-15.895l38.914-8.4219c14.156-3.0547 28.961-2.4727 42.816 1.6797l52.605 15.75c2.6719 0.80078 5.5664 0.10156 7.5586-1.8398 0.29297-0.27734 29.25-27.512 73.492-4.5508l77.617 36.355c1.8008 0.84766 3.8477 0.96094 5.7266 0.32422l43.07-14.52c9.3984-3.1484 19.645-2.8789 28.844 0.75391l34.418 13.633c1.2539 0.5 2.6172 0.64844 3.9492 0.46094l32.176-4.7188c5.5039-0.80078 10.945-0.52344 16.188 0.80078 19.883 5.0273 68.625 15.68 124.51 15.672 31.906 0 66.125-3.5859 98.648-13.555-29.789 26.605-83.559 44.5-112.43 51.43-2-6.582-6.082-16.305-14.617-29.73-16.711-26.273-94.914 11.363-132.98 31.832l-40.512-40.52c-10.09-8.5508-24.27-10.277-36.172-4.3711l-73.129 36.988c2.2031-8.1211 1.957-16.797-0.83984-24.918-4.0273-11.699-12.934-21.039-24.434-25.617l-52.621-20.961c-16.941-6.7578-35.957-5.8594-52.184 2.4258l-134.93 68.895c-2.6875-1.7227-5.1797-3.7812-7.2344-6.3984-5.1328-6.543-7.1719-14.633-5.7578-22.809zm36.59 34.41 118.33-60.414c12.277-6.2656 26.664-6.9453 39.48-1.8398l52.621 20.961c7.3281 2.9258 13.008 8.875 15.574 16.336 2.5625 7.4609 1.7617 15.641-2.2266 22.453l-6.4141 10.992c-0.13281 0.21484-0.16016 0.46094-0.26172 0.69141l-78.918 0.003906zm346.89 9.1602-99.508 0.007812 74.047-37.449c6.3438-3.1406 13.926-2.2188 18.844 1.9258l24.07 24.094c-0.37109 0.19141-0.76953 0.29297-1.1172 0.53125zm162.11-16.441-15.504 13.363-79.52 2.3555c48.117-23.973 91.887-37.559 97.23-29.145 2.5703 4.043 4.5508 7.5508 6.2734 10.793-3.0234-0.24609-6.0859 0.57031-8.4805 2.6328z"/>
 </g>
</svg>
