<?xml version="1.0" encoding="UTF-8"?>
<svg width="1200pt" height="1200pt" version="1.1" viewBox="0 0 1200 1200" xmlns="http://www.w3.org/2000/svg">
 <g>
  <path d="m375.91 679.43c3.1914-0.046876 6.3594-0.16797 9.4922-0.44531 5.7852-0.53906 11.641-1.1055 17.578-1.668 3.875-0.37109 7.7656-0.74219 11.676-1.1172l146.93-205.11c-10.344-11.074-20.039-22.766-29.16-34.848l-221.24 182.48c20.438 27.613 42.109 47.953 64.727 60.699z"/>
  <path d="m583.34 675.07 63.828-138.38c-4.9453-2.7617-9.8633-5.5547-14.797-8.3867-13.848-7.9453-26.809-17.062-38.977-27.121l-112.77 169.79c36.832-2.0156 72.555-1.8008 102.71 4.1016z"/>
  <path d="m249.01 390.18c-0.86328 3.6602-1.5977 7.3555-2.2188 11.016-1.5352 9.2539-2.375 18.973-2.4844 28.957l241.73-59.375c-5.9648-10.309-12.035-21.277-18.527-33.406z"/>
  <path d="m586.36 499.15c-7.332-6.3359-14.594-13.176-21.637-20.41l-138.52 193.38c14.734-1.3438 31.32-2.7617 47.785-3.7695z"/>
  <path d="m309.41 611.11 216.52-178.59c-7.3086-9.9609-14.605-20.652-21.77-31.859l-217.26 174.77 0.011719 0.035156c7.1914 12.719 14.75 24.695 22.5 35.641z"/>
  <path d="m281.07 571.13 221.68-178.31c-3.4219-5.4844-6.7578-10.98-10.008-16.488l-251.38 61.754c0.9375 34.402 10.43 79.305 39.707 133.04z"/>
  <path d="m1159.1 711.5c-0.12109-0.30078-7.9688-21.336-20.555-23.664-2.1367-0.38281-4.043-1.9062-5.125-3.2031-16.273-19.609-39.602-24.875-62.051-28.621-13.488-2.2422-27.238-4.332-40.523-6.3594-19.645-3-39.926-6.0977-59.809-9.707-7.3672-1.3555-14.52-3.3008-22.754-5.8203-12.422 40.273-115.57 85.922-177.61 113.39l-0.32422 0.14453c-13.738 6.0859-26.195 9.0352-38.062 9.0352-27.469 0.011719-47.855-15.984-71.473-34.5-10.055-7.8945-20.375-15.984-32.328-23.879-22.945-15.168-58.656-22.523-109.18-22.523-37.262 0-77.184 3.8164-115.77 7.5-5.9414 0.5625-11.809 1.1289-17.594 1.668-3.8047 0.34766-7.7539 0.52734-11.723 0.52734-74.102 0-160.22-61.883-206.5-95.137-7.1641-5.1602-13.332-9.5742-18.504-13.129-8.6992-5.9414-17.832-8.9531-27.145-8.9531-25.141 0-43.934 21.66-44.723 22.57l-2.625 2.9062c-3.6367 12.312-6.2773 26.34-8.0742 42.898-0.71875 6.6016-0.75781 13.465-0.80469 20.102-0.035156 6.1211-0.085937 12.445-0.64844 18.613 1.1406 12.59 3.1328 21.07 3.1562 21.168 9.9375 28.883 62.34 36.48 82.066 39.348l3.3242 0.49219c7.4766 1.1289 28.871 6.3477 55.969 12.961 38.832 9.5039 87.168 21.301 126.53 29.062 25.391 5.0156 48.059 7.5469 67.391 7.5469 18.672 0 27.277-2.4609 27.359-2.4844l0.23828-0.058594c0.52734-0.085937 54.18-9.0352 111.7-9.6953 53.508-0.63672 90.191 9.8633 107.57 14.832 1.6094 0.44531 3.0586 0.86328 4.3672 1.2461 13.621 3.7578 45.562 23.258 60.91 32.629 2.5664 1.5586 4.6211 2.8086 5.9297 3.5898 1.1289 0.66016 2.3164 1.4023 3.5898 2.1953 9.1914 5.6875 21.77 13.465 38.797 13.871 19.535 0.48047 25.586-6.6484 33.973-16.609 2.9766-3.5156 6.3359-7.5 10.633-11.531 16.727-15.707 30.469-15.887 31.043-15.887 0.21484 0.011719 14.23 0.44531 35.605 0.44531 31.5 0 78.371-0.9375 122.95-5.4375 74.699-7.5352 145.82-51.613 146.53-52.055l2.9883-1.8711 0.070313 3.5273c0.52734 27.371-3.8398 57.301-40.297 71.734-7.1758 2.832-13.883 5.5781-20.293 8.1836-39.637 16.078-68.27 27.707-111.45 27.707-18.434 0-39.395-2.1133-64.105-6.4453-9.9844-1.7539-19.523-2.6406-28.344-2.6406-55.656 0-68.797 35.219-68.941 35.566l-0.16797 0.34766c-12.047 20.184-19.715 27.469-38.832 28.055-16.523 0.50391-24.238-5.8555-35.16-14.82-13.703-11.242-32.461-26.641-80.23-41.23-22.801-6.9609-45.301-10.488-66.863-10.488-41.855 0-73.031 12.984-95.797 22.453-4.0547 1.6914-7.8945 3.2773-11.461 4.668-16.355 6.3242-80.82 13.129-150.73 13.129-65.473 0-183.39-6.1445-237.91-47.305-3.5273-1.8711-58.906-32.258-56.281-93.168 0-0.085937 0.625-6.1562 1.4766-14.16-1.7383 2.7852-3.3125 5.4961-4.1992 8.375-8.6406 28.379-9.6836 59.531-3.1328 92.617 6.2773 31.727 32.137 47.102 52.715 54.406 18.539 6.5898 38.41 10.656 57.625 14.605 5.9023 1.1992 11.809 2.4102 17.676 3.707 34.262 7.4648 69.145 8.4102 95.699 8.4102 12.949 0 26.125-0.23828 38.867-0.49219l9.9727-0.19141c16.895-0.30078 34.094-2.8555 50.711-5.3164 3.1562-0.46875 6.3125-0.9375 9.4688-1.3789 25.738-3.707 48.926-6.7695 72.023-6.7695 24.938 0 46.883 3.6836 67.141 11.23 15.793 5.8789 33.492 10.391 55.691 14.172 16.391 2.7852 33.359 4.1289 49.777 5.4102 4.1523 0.32422 8.3047 0.64844 12.457 0.99609 9.0977 0.76953 18.395 1.1758 27.395 1.5469 4.1289 0.17969 8.2422 0.34766 12.359 0.5625l17.762-0.011719c1.3906-0.20312 2.7969-0.40625 4.1992-0.625 3.1094-0.49219 6.3125-0.97266 9.5273-1.2734 11.855-1.1172 23.723-2.1602 35.594-3.2031 23.398-2.0625 47.617-4.1992 71.328-6.8047 31.57-3.4688 66.098-7.8711 105.56-13.465 36.492-5.1836 79.246-12.445 119.68-27.121 9.1914-3.3359 18.59-6.5273 27.684-9.6133 13.129-4.4531 26.723-9.0469 39.816-14.16 16.379-6.3945 29.914-12.984 41.387-20.184 17.207-10.789 27.277-26.723 30-47.328 0.023438-0.15625 2.0898-16.32 1.5859-30.254-1.0625-14.293-1.9492-22.023-9.7734-40.574z"/>
  <path d="m107.07 492.93-1.5859 1.2734c-7.7891 24.719-16.848 53.652-25.895 83.543 8.9297-7.3828 24.387-17.344 42.855-17.344 10.836 0 21.371 3.4453 31.297 10.223 5.1953 3.5508 11.352 7.9805 18.492 13.105 42.395 30.457 119.75 86.051 188.1 92.988-29.051-20.207-56.363-52.727-81.266-96.816-25.129-44.496-52.668-111.93-41.102-180.47 6.9844-41.375 24.742-63.254 25.5-64.164 0.035156-0.046875 1.0938-1.2227 3.1211-3.1797-1.5469 0.38281-2.7617 0.67187-3.4062 0.81641-34.078 7.5469-80.734 17.891-91.32 55.512-13.586 48.289-63.926 103.61-64.43 104.16z"/>
  <path d="m125.11 438.42c-1.7539 4.0664-3.5625 8.2812-4.8945 12.48-2.125 6.7188-4.2461 13.43-6.3711 20.148 15.516-19.344 40.586-53.93 49.344-85.055 8.7852-31.262 37.668-45.562 66.742-54.145-2.2422-0.046874-4.4531-0.16797-6.6133-0.3125-9.0977-0.67187-19.094-0.99609-30.562-0.99609-10.152 0-20.496 0.25391-30.504 0.49219l-3.5508 0.085938c-7.3203 0.16797-14.398 1.8125-19.906 4.6328-7.8594 4.0078-5.7852 13.922-4.957 16.871 7.0078 25.055 2.5547 49.234-2.7109 69.59-1.457 5.6094-3.7734 10.996-6.0156 16.207z"/>
  <path d="m825.24 591.17c-12.445-4.9453-23.363-9.2656-29.785-11.797-20.137-7.9336-116.76-52.715-181.81-98.508-62.785-44.195-122.3-152.39-141.88-187.95-2.4609-4.4648-4.3789-7.9805-5.6406-10.105-0.52734-0.91016-5.4375-8.8789-14.184-8.8789-3 0-6.2031 0.9375-9.5039 2.7852-7.0312 4.0664-13.895 7.6445-20.785 10.848 16.668 4.0195 37.691 15.406 53.594 45.168 37.535 70.273 85.934 147.85 160.13 190.37 64.367 36.91 179.12 95.062 227.15 108.28 4.8594 1.332 9.5898 2.0156 14.004 2.0156 13.246 0 22.055-5.9414 27.898-11.375-1.9805-0.57422-3.7188-1.1523-5.3516-1.7656-9.4766-3.5508-45.18-17.723-73.836-29.086z"/>
  <path d="m868.03 641.72c-2.6289-0.38281-5.2578-0.9375-7.9219-1.668-5.0156-1.3906-11.281-3.457-18.648-6.168l-16.703 79.078c12.301-5.8789 23.316-11.426 33.516-16.824z"/>
  <path d="m943.03 630.57 0.046875-0.15625c-5.4609-1.6914-10.922-3.4219-16.43-4.9453-4.5977-1.2734-9.2773-2.2578-13.922-3.3477-6.2539 6.7695-17.629 17.258-36.277 17.258-0.27734 0-0.58984-0.023437-0.86328-0.023437l-10.094 56.328c39.129-21.227 72.801-44.59 77.539-65.113z"/>
  <path d="m358.7 304.18c-18.434 2.5312-36.336 8.832-54.551 13.094-4.5352 1.0547-9.0469 2.1484-13.57 3.2031-14.664 9.9961-22.391 18.516-22.535 18.672-0.10938 0.13281-12.504 15.457-20.375 44.148l219.3-53.004c-18.172-30.289-41.586-38.113-59.117-38.977-15.707 6.1914-31.824 10.477-49.152 12.863z"/>
  <path d="m767.48 602.15c-8.207-3.8633-16.645-7.9219-25.176-12.098l-48.156 145.39c10.754 6.6836 20.102 10.355 29.734 11.723z"/>
  <path d="m768.25 742.03c13.777-6.0977 30.371-13.43 47.785-21.602l19.414-92.016c-16.465-6.3359-37.234-15.277-60.684-26.184l-44.641 148.49c11.09 0.35938 23.387-2.1484 37.824-8.543z"/>
  <path d="m664.55 717.47c7.8945 6.2148 15.277 11.988 22.57 16.945l49.801-150.36c-15.66-7.7539-31.992-16.117-48.66-24.949l-57.527 133.54c0.34766 0.23828 0.71875 0.42188 1.0664 0.66016 12.195 8.0508 22.648 16.246 32.75 24.168z"/>
  <path d="m680.88 558.56c-9.7422-5.207-19.414-10.477-28.836-15.719l-60.383 130.93c13.031 3.0977 24.504 7.2852 34.188 12.504z"/>
 </g>
</svg>
