<?xml version="1.0" encoding="UTF-8"?>
<svg width="3600pt" height="3600pt" version="1.1" viewBox="0 0 3600 3600" xmlns="http://www.w3.org/2000/svg">
 <g>
  <path d="m1800 0c-236.38 0-470.45 46.559-688.83 137.02-218.39 90.457-416.82 223.05-583.96 390.2-167.15 167.14-299.73 365.57-390.2 583.96-90.457 218.39-137.02 452.46-137.02 688.84 0.0039062 477.39 189.65 935.23 527.21 1272.8 337.57 337.57 795.4 527.21 1272.8 527.2 477.39 0 935.22-189.64 1272.8-527.21s527.21-795.4 527.21-1272.8c0-477.39-189.64-935.23-527.2-1272.8-337.56-337.56-795.4-527.21-1272.8-527.21zm0 203.28c207.36 0 412.69 41.305 604.27 121.55 191.57 80.242 365.64 197.86 512.27 346.13 146.62 148.27 262.93 324.29 342.29 518.02 79.355 193.72 120.19 401.35 120.19 611.04 0 423.47-166.36 829.6-462.48 1129-296.12 299.44-697.75 467.66-1116.5 467.67-207.36 0-412.7-41.301-604.27-121.54s-365.65-197.85-512.27-346.12c-146.63-148.27-262.94-324.29-342.29-518.01-79.355-193.72-120.2-401.36-120.2-611.04-0.003906-209.69 40.84-417.32 120.19-611.04 79.355-193.72 195.66-369.75 342.29-518.02 146.63-148.27 320.7-265.88 512.28-346.12 191.58-80.242 396.91-121.54 604.27-121.54z"/>
  <path d="m2890.6 2098.3c-9.5469-28.637-42.957-47.73-42.957-47.73s-4.7734-14.32-21.477-33.41c-16.707-19.09-66.82-59.66-83.527-71.594-19.09-11.934-40.57-19.09-147.96-38.184-236.26-23.863-319.79-54.891-357.97-69.207 4.7734-16.707-7.1602-35.797-16.707-42.957-11.934-7.1602-52.504-23.863-76.367-26.25-23.863-2.3867-64.434-28.637-78.754-35.797-16.707-7.1602-23.863-16.707-42.957-26.25-16.707-9.5469-54.891-23.863-78.754-23.863s-88.301-33.41-100.23-42.957c-11.934-9.5469-42.957-42.957-69.207-57.273-26.25-11.934-57.273-21.477-73.98-31.023-16.707-11.934-28.637-66.82-28.637-69.207s2.3867-16.707 0-28.637c-2.3867-11.934-33.41-62.047-40.57-73.98-7.1602-11.934-42.957-102.62-47.73-114.55-7.1602-11.934-35.797-88.301-47.73-109.78-11.934-23.863-42.957-62.047-64.434-62.047-21.477-2.3867-93.07 40.57-114.55 47.73-21.477 7.1602 0 0-85.914 42.957-81.141 31.023-210.01 71.594-279.21 95.457-35.797 11.934-52.504 14.32-102.62 26.25-78.754 4.7695-81.141 33.406-81.141 33.406s-11.934 11.934 0 23.863c-16.707 7.1602-23.863 145.57-23.863 145.57s-9.5469 9.5469-19.094 16.707c0 7.1602-7.1602 124.1-9.5469 131.25-2.3867 7.1602-9.5469 19.09-21.477 31.023-11.934 11.934 0 78.754-4.7734 97.844-7.1602 2.3867-2.3867 21.477 0 40.57 2.3867 21.477-2.3867 274.45 0 391.38 2.3867 114.55 11.934 109.78 23.863 133.64 42.957 42.957 133.64 38.184 159.89 42.957 28.637 4.7734 338.88 2.3867 396.15 0 57.273-2.3867 274.45-7.1602 288.76-7.1602 16.707 0 331.72 7.1602 365.13 7.1602s214.78-11.934 372.29-26.25c157.51-16.707 310.24-50.117 400.93-78.754 88.301-28.637 124.1-62.047 147.96-88.301 21.48-26.246 16.707-73.977 7.1641-102.61zm-696.85-19.09c9.5469-14.32 9.5469-26.25 11.934-35.797 7.1602-26.25 7.1602-26.25 19.09-59.66 0-2.3867 2.3867-2.3867 2.3867-4.7734 54.891-66.82 7.1602-97.844-11.934-107.39-4.7734-2.3867-7.1602-7.1602-7.1602-11.934 0-9.5469 9.5469-16.707 19.09-11.934 11.934 4.7734 26.25 9.5469 33.41 11.934 11.934 2.3867 66.82 19.09 78.754 21.477s81.141 14.32 105 19.09c23.863 4.7734 174.21 23.863 183.76 23.863 11.934 0 71.594 19.09 85.914 26.25s-11.934 16.707-16.707 19.09c-4.7734 2.3867-28.637 11.934-50.117 16.707 0 0-116.94 26.25-136.03 28.637-19.09 2.3867-95.457 16.707-128.87 21.477-31.023 4.7734-52.504 9.5469-83.527 42.957 0 0-2.3867 2.3867-2.3867 4.7734-11.934 26.25-21.477 26.25-21.477 26.25s-16.707 4.7734-47.73 2.3867h-2.3867c-21.473-4.7656-38.176-16.699-31.016-33.402zm-1412.8-541.73c0-4.7734 2.3867-7.1602 7.1602-7.1602 11.934-4.7734 45.344-16.707 62.047-21.477 21.477-7.1602 396.15-190.92 520.25-250.58 124.1-59.66 152.73 54.891 152.73 54.891l23.863 100.23s21.477 52.504-200.46 145.57c-186.14 78.754-224.33 167.05-231.49 193.3-2.3867 4.7734-4.7734 7.1602-11.934 7.1602-183.75-16.707-260.12-42.957-326.94-64.438-4.7734-2.3867-7.1602-4.7734-7.1602-9.5469 0-54.887 9.5469-126.48 11.934-147.96zm-33.41 281.61c-4.7734-19.09 2.3867-64.434 2.3867-64.434s-4.7734-42.957-2.3867-47.73c4.7734-7.1602 150.35 47.73 276.83 62.047 38.184 2.3867 147.96 14.32 217.17-28.637 69.207-42.957 178.98-102.62 178.98-102.62s7.1602 64.434 52.504 69.207c42.957 4.7734 119.32 9.5469 147.96 14.32s59.66 21.477 66.82 26.25c7.1602 4.7734 42.957 45.344 62.047 59.66 19.09 14.32 76.367 69.207 100.23 78.754 23.863 9.5469 57.273 23.863 57.273 23.863s11.934 114.55-47.73 250.58l-23.863 52.504s-338.88-31.023-379.45-33.41c-38.184-2.3867-224.33 0-229.1-7.1602-7.1602-7.1602-88.301-181.37-88.301-181.37s-11.934-38.184-69.207-54.891c-57.266-21.477-319.78-95.457-322.16-116.93zm2116.8 372.29c-7.1602 11.934-14.32 23.863-26.25 33.41-31.023 28.637-155.12 62.047-298.31 90.688-145.57 28.637-498.77 45.344-565.59 52.504-69.207 7.1602-300.7 2.3867-346.04 0s-229.1 0-245.8 0c-16.707 0-241.03-2.3867-286.38 0-40.57 2.3867-193.3 0-236.26 0-7.1602 0-16.707 0-23.863-2.3867-9.5469-2.3867-21.477-4.7734-33.41-9.5469-21.477-7.1602-38.184-26.25-42.957-47.73 0-4.7734-2.3867-7.1602-2.3867-11.934-4.7734-35.797-2.3867-105 0-128.87 0-4.7734 4.7734-7.1602 9.5469-7.1602 9.5469 0.003906 38.184 4.7734 66.82 9.5469 35.797 7.1602 183.76 7.1602 224.33 7.1602 7.1602 0 14.32 0 19.09 2.3867 40.57 4.7734 23.863 4.7734 112.16 14.32h11.934c105 0 138.41 2.3867 326.95 14.32 42.957 4.7734 238.65 19.09 453.43 28.637 214.78 9.5469 539.34-35.797 627.64-45.344 88.301-9.5469 202.85-57.273 214.78-64.434 7.1602-4.7734 16.707-11.934 23.863-16.707 4.7734-4.7734 11.934-4.7734 16.707 0 2.3867 2.3867 4.7734 7.1602 4.7734 11.934 11.934 21.477 9.5469 47.727-4.7734 69.207z"/>
  <path d="m1456.4 1317.9c0 14.5-11.754 26.254-26.254 26.254-14.496 0-26.25-11.754-26.25-26.254 0-14.496 11.754-26.25 26.25-26.25 14.5 0 26.254 11.754 26.254 26.25"/>
  <path d="m1496.9 1415.8c0 14.496-11.75 26.25-26.25 26.25-14.496 0-26.25-11.754-26.25-26.25 0-14.5 11.754-26.254 26.25-26.254 14.5 0 26.25 11.754 26.25 26.254"/>
 </g>
</svg>
