<?xml version="1.0" encoding="UTF-8"?>
<svg width="1200pt" height="1200pt" version="1.1" viewBox="0 0 1200 1200" xmlns="http://www.w3.org/2000/svg">
 <g>
  <path d="m956.25 225h-93.75v-56.25c0-72.375-58.875-131.25-131.25-131.25h-262.5c-72.375 0-131.25 58.875-131.25 131.25v56.25h-93.75c-113.72 0-206.25 92.531-206.25 206.25v150c0 10.352 8.3984 18.75 18.75 18.75s18.75-8.3984 18.75-18.75v-150c0-93.039 75.711-168.75 168.75-168.75h112.5c10.352 0 18.75-8.3984 18.75-18.75v-75c0-51.695 42.055-93.75 93.75-93.75h262.5c51.695 0 93.75 42.055 93.75 93.75v75c0 10.352 8.3984 18.75 18.75 18.75h112.5c93.039 0 168.75 75.711 168.75 168.75v150c0 10.352 8.3984 18.75 18.75 18.75s18.75-8.3984 18.75-18.75v-150c0-113.72-92.531-206.25-206.25-206.25z"/>
  <path d="m1143.8 637.5h-37.5v-56.25c0-10.352-8.3984-18.75-18.75-18.75h-19.707c-9.5039-104.96-97.895-187.5-205.29-187.5s-195.79 82.539-205.29 187.5h-19.707c-10.352 0-18.75 8.3984-18.75 18.75v56.25h-37.5v-56.25c0-10.352-8.3984-18.75-18.75-18.75h-19.688c-4.4453-49.52-26.305-95.211-62.852-130.2-7.4805-7.1445-19.352-6.8828-26.512 0.58203-7.1641 7.4805-6.8984 19.352 0.58203 26.512 11.926 11.398 21.824 24.242 29.793 38.062-49.426 5.625-95.68 3.6758-137.36-6.8242-15.582-3.918-30.75-8.9805-46.82-14.305-24.133-8.0234-49.086-16.07-75.281-20.156 29.965-27.117 69.641-43.672 113.14-43.672 20.023 0 39.957 3.6758 59.23 10.93 9.6758 3.6172 20.512-1.2578 24.148-10.949 3.6367-9.6953-1.2578-20.512-10.949-24.148-23.512-8.8516-47.887-13.332-72.43-13.332-107.4 0-195.79 82.539-205.29 187.5h-19.707c-10.352 0-18.75 8.3984-18.75 18.75v56.25h-37.5c-10.352 0-18.75 8.3984-18.75 18.75v75c0 10.352 8.3984 18.75 18.75 18.75h58.633l54.039 396.28c1.2734 9.2812 9.2031 16.219 18.578 16.219h300c9.375 0 17.305-6.9375 18.582-16.219l54.035-396.28h79.762l54.039 396.28c1.2773 9.2812 9.207 16.219 18.582 16.219h300c9.375 0 17.305-6.9375 18.582-16.219l33.262-243.99c1.4062-10.258-5.793-19.707-16.031-21.113-10.145-1.4062-19.707 5.7734-21.113 16.031l-31.066 227.79h-267.27l-51.148-375h369.54l-9.9375 72.883c-1.4062 10.258 5.793 19.707 16.031 21.113 10.258 1.4453 19.707-5.7734 21.113-16.031l10.648-77.965h58.633c10.352 0 18.75-8.3984 18.75-18.75v-75c0-10.352-8.3984-18.75-18.75-18.75zm-135-140.02c-49.387 5.6055-95.625 3.6562-137.29-6.8438-15.582-3.918-30.75-8.9805-46.82-14.305-24.133-8.0234-49.086-16.07-75.281-20.156 29.965-27.117 69.641-43.672 113.14-43.672 62.551 0 117.11 34.293 146.25 84.977zm-288.94-6.1523c5.8125-0.074219 11.457 0.074219 16.594 0.69531 25.574 3.0195 50.27 11.23 76.406 19.914 16.012 5.3242 32.57 10.82 49.5 15.094 30.168 7.5938 62.25 11.398 95.961 11.398 21.336 0 43.461-1.9297 66.02-4.9883 2.7734 9.3945 4.8359 19.086 5.9453 29.082h-335.44c2.8672-25.969 11.699-50.137 25.012-71.195zm-63.562 108.68h412.5v37.5h-412.5zm-461.44-108.68c5.8125-0.074219 11.457 0.074219 16.594 0.69531 25.574 3.0195 50.27 11.23 76.406 19.914 16.012 5.3242 32.57 10.82 49.5 15.094 30.168 7.5938 62.25 11.398 95.961 11.398 21.355 0 43.52-1.9297 66.113-4.9883 2.793 9.4492 4.7617 19.164 5.8516 29.082h-335.46c2.8867-25.969 11.719-50.137 25.031-71.195zm-63.562 108.68h412.5v37.5h-412.5zm339.88 525h-267.27l-51.129-375h369.54zm653.87-412.5h-1050v-37.5h1050z"/>
  <path d="m712.5 187.5h-18.75c-10.352 0-18.75 8.3984-18.75 18.75s8.3984 18.75 18.75 18.75h18.75c31.012 0 56.25-25.238 56.25-56.25s-25.238-56.25-56.25-56.25h-225c-31.012 0-56.25 25.238-56.25 56.25s25.238 56.25 56.25 56.25h131.25c10.352 0 18.75-8.3984 18.75-18.75s-8.3984-18.75-18.75-18.75h-131.25c-10.332 0-18.75-8.418-18.75-18.75s8.418-18.75 18.75-18.75h225c10.332 0 18.75 8.418 18.75 18.75s-8.418 18.75-18.75 18.75z"/>
  <path d="m281.25 997.43c12.488 7.1992 26.383 10.836 40.836 10.836 11.457 0 23.289-2.2891 35.023-6.8633 25.07-9.7891 46.949-29.156 61.594-54.523s20.477-53.98 16.406-80.586c-4.2891-28.164-18.973-50.797-41.359-63.715-22.367-12.918-49.312-14.305-75.844-3.957-25.07 9.7891-46.949 29.156-61.594 54.523s-20.477 53.98-16.406 80.586c4.2734 28.148 18.957 50.781 41.344 63.699zm104.96-69.301c-10.387 18.02-25.574 31.633-42.75 38.324-8.1953 3.207-16.273 4.5-23.906 4.0859 9.6016-7.4453 17.812-16.688 24.02-27.414 7.4805-12.977 11.738-27.113 12.637-41.945 1.2578-19.875 12.301-37.461 29.625-47.062l5.0234-2.8125c3.4688 5.9609 6 12.863 7.1797 20.625 2.7617 18.23-1.4375 38.18-11.828 56.199zm-97.422-56.25c10.387-18.02 25.574-31.633 42.75-38.324 7.2578-2.832 14.438-4.2578 21.281-4.2578 0.86328 0 1.6484 0.26172 2.5117 0.32031-21.355 16.613-34.801 41.551-36.543 69.262-0.54297 9.0195-3.1328 17.586-7.6875 25.48-5.2695 9.1133-12.805 16.52-21.938 21.523l-5.0234 2.8125c-3.4688-5.9609-6-12.863-7.1797-20.625-2.7617-18.223 1.4375-38.172 11.828-56.191z"/>
  <path d="m918.75 802.57c-22.367-12.918-49.312-14.305-75.844-3.957-25.07 9.7891-46.949 29.156-61.594 54.523s-20.477 53.98-16.406 80.586c4.293 28.164 18.977 50.773 41.363 63.711 12.488 7.1992 26.383 10.836 40.836 10.836 11.457 0 23.289-2.2891 35.023-6.8633 25.07-9.7891 46.949-29.156 61.594-54.523 14.645-25.367 20.477-53.98 16.406-80.586-4.3086-28.176-18.992-50.809-41.379-63.727zm-104.96 69.301c10.387-18.02 25.574-31.633 42.75-38.324 7.2578-2.832 14.438-4.2578 21.281-4.2578 0.86328 0 1.6484 0.26172 2.5117 0.32031-21.355 16.613-34.801 41.551-36.543 69.262-0.54297 9.0195-3.1328 17.586-7.6875 25.48-5.2695 9.1133-12.805 16.52-21.938 21.523l-5.0234 2.8125c-3.4688-5.9609-6-12.863-7.1797-20.625-2.7617-18.223 1.4375-38.172 11.828-56.191zm97.422 56.25c-10.387 18.02-25.574 31.633-42.75 38.324-8.1953 3.207-16.273 4.5-23.906 4.0859 9.6016-7.4453 17.812-16.688 24.02-27.414 7.4805-12.977 11.738-27.113 12.637-41.945 1.2578-19.875 12.301-37.461 29.625-47.062l5.0234-2.8125c3.4688 5.9609 6 12.863 7.1797 20.625 2.7617 18.23-1.4375 38.18-11.828 56.199z"/>
 </g>
</svg>
