<?xml version="1.0" encoding="UTF-8"?>
<svg width="3600pt" height="3600pt" version="1.1" viewBox="0 0 3600 3600" xmlns="http://www.w3.org/2000/svg">
 <g>
  <path d="m1800 0c-236.38 0-470.45 46.559-688.83 137.02-218.39 90.457-416.82 223.05-583.96 390.2-167.15 167.14-299.73 365.57-390.2 583.96-90.457 218.39-137.02 452.46-137.02 688.84 0.0039062 477.39 189.65 935.23 527.21 1272.8 337.57 337.57 795.4 527.21 1272.8 527.2 477.39 0 935.22-189.64 1272.8-527.21s527.21-795.4 527.21-1272.8c0-477.39-189.64-935.23-527.2-1272.8-337.56-337.56-795.4-527.21-1272.8-527.21zm0 203.28c207.36 0 412.69 41.305 604.27 121.55 191.57 80.242 365.64 197.86 512.27 346.13 146.62 148.27 262.93 324.29 342.29 518.02 79.355 193.72 120.19 401.35 120.19 611.04 0 423.47-166.36 829.6-462.48 1129-296.12 299.44-697.75 467.66-1116.5 467.67-207.36 0-412.7-41.301-604.27-121.54s-365.65-197.85-512.27-346.12c-146.63-148.27-262.94-324.29-342.29-518.01-79.355-193.72-120.2-401.36-120.2-611.04-0.003906-209.69 40.84-417.32 120.19-611.04 79.355-193.72 195.66-369.75 342.29-518.02 146.63-148.27 320.7-265.88 512.28-346.12 191.58-80.242 396.91-121.54 604.27-121.54z"/>
  <path d="m2918.5 2162.7c0-40.305-17.633-113.36-37.785-166.26-20.152-55.418-47.863-70.535-62.977-78.09-15.113-7.5586-52.898-5.0391-221.68-17.633-168.78-12.594-284.65-75.57-360.22-115.88-73.051-37.785-400.53-211.6-423.2-224.2 0 0-2.5195 0-2.5195-2.5195-7.5586-5.0391-45.344-32.746-75.57-57.938-32.746-27.711-83.129-133.51-105.8-176.33-22.672-45.344-93.203-191.45-108.32-221.68-12.594-25.191-32.746-17.633-37.785-15.113 0 0-2.5195 0-2.5195 2.5195-5.0391 5.0391-37.785 17.633-83.129 45.344-50.383 30.23-100.76 93.203-110.84 105.8-10.078 12.594-30.23 60.457-40.305 108.32-7.5586 35.266 10.078 95.723 20.152 125.95 2.5195 10.078-2.5195 22.672-12.594 25.191-10.078 2.5195-25.191 7.5586-47.863 15.113-105.8 40.305-151.14-20.152-204.04-75.57-40.305-42.824-110.84-50.383-141.07-50.383-10.078 0-17.633-7.5586-20.152-17.633 0-7.5586-2.5195-15.113-2.5195-25.191-2.5195-25.191-10.078-25.191-15.113-30.23-7.5586-5.0391-27.711-12.594-42.824 7.5586-15.113 20.152-17.633 90.688-17.633 108.32 2.5195 17.633 0 128.47-5.0391 173.81-5.0391 45.344-45.344 234.27-50.383 256.94-5.0391 22.672 0 178.85 0 178.85s5.0391 98.242 7.5586 199c2.5195 100.76 42.824 108.32 57.938 118.39 12.594 12.594 113.36 50.383 136.03 55.418 22.672 5.0391 254.42 5.0391 254.42 5.0391s387.93-12.594 445.87-12.594c55.418 2.5195 428.24 5.0391 559.23 0 130.99-5.0391 352.67-37.785 458.46-55.418 105.8-20.152 231.75-73.051 231.75-73.051s55.418-25.191 62.977-50.383c7.5625-25.195-2.5156-25.195-2.5156-65.5zm-836.32-390.45c52.898 12.594 98.242 27.711 143.59 68.016 5.0391 15.113 10.078 22.672-5.0391 37.785-12.594 15.113-68.016 70.535-68.016 70.535l-125.95-57.938 5.0391-95.723c2.5234 2.5117-2.5156-35.273 50.383-22.676zm-602.05-236.79 40.305-95.723s7.5586-40.305 57.938-7.5586c50.383 32.746 88.168 62.977 120.91 123.43 0 17.633 0 27.711-17.633 37.785-20.152 10.078-93.203 47.863-93.203 47.863 0 20.152-196.48 345.11-196.48 345.11l-430.76-73.051zm-60.457 770.83c0 12.594-5.0391 10.078-22.672 15.113-75.57 15.113-297.25 0-297.25 0-17.633-7.5586-20.152-25.191-20.152-25.191s0-15.113 10.078-25.191c10.078-10.078 57.938-5.0391 70.535-5.0391 10.078 0 193.96 12.594 226.71 17.633 30.223 2.5234 35.262 7.5625 32.742 22.676zm1453.5-249.38c-2.5195 2.5195-40.305 35.266-98.242 52.898s-115.88 35.266-146.11 40.305c-27.711 2.5195-78.09 15.113-100.76 40.305l-17.633 17.633c-2.5195 2.5195-7.5586 2.5195-10.078 0-15.113-17.633-65.496-70.535-95.723-70.535-30.23-2.5195-80.609-12.594-153.66 10.078-62.977 20.152-219.16 73.051-251.91 83.129-2.5195 0-7.5586 0-7.5586-2.5195-10.078-20.152-45.344-88.168-85.648-105.8-47.863-22.672-98.242-20.152-226.71 52.898-2.5195 0-42.824 30.23-45.344 30.23-22.672 17.633-42.824 30.23-98.242 70.535-5.0391 5.0391-12.594 5.0391-17.633 5.0391-98.242-27.711-322.44-47.863-387.93-50.383-62.977-2.5195-314.88-15.113-385.41-30.227-7.5586-2.5195-12.594-7.5586-17.633-15.113-10.078-20.152-5.0391-40.305-2.5195-52.898 2.5195-10.078 10.078-15.113 20.152-15.113 7.5586 0 15.113-2.5195 22.672-2.5195 5.0391 0 12.594-5.0391 15.113-10.078 37.785-50.383 70.535-45.344 110.84-45.344 201.52 5.0391 682.66 90.688 730.52 98.242h2.5195c50.383-35.266 229.23-153.66 297.25-136.03 78.09 20.152 125.95 52.898 161.22 62.977s103.28 50.383 161.22 12.594c57.938-37.785 123.43-62.977 178.85-73.051 55.418-10.078 146.11-15.113 196.48-27.711 50.383-12.594 136.03-47.863 153.66-55.418 20.152-10.078 45.344-7.5586 65.496 17.633 17.633 25.191 25.191 37.785 30.23 57.938 5.0391 22.672 5.0391 37.785 2.5234 40.305z"/>
  <path d="m1429.7 1636.3-302.29 216.64 249.39 42.824s113.36-188.93 113.36-201.52c0.003906-10.074-60.457-57.938-60.457-57.938z"/>
 </g>
</svg>
