<?xml version="1.0" encoding="UTF-8"?>
<svg width="1200pt" height="1200pt" version="1.1" viewBox="0 0 1200 1200" xmlns="http://www.w3.org/2000/svg">
 <g fill-rule="evenodd">
  <path d="m947.23 939.14h-224.66l-56.504-339.13 2.1914-13.043 2.1406-13.043h7.9844c28.797 0 52.172-23.375 52.172-52.172v-104.35h303.65zm-842.77-521.74h521.74v52.172h-521.74zm141.96-156.52h237.81l17.426 52.172h-272.66zm469.57-156.52h237.81l17.426 52.176h-272.66zm431.95 52.176h-66.73l-40.277-120.84c-7.0977-21.34-27.027-35.687-49.512-35.687h-313.04c-22.438 0-42.367 14.348-49.516 35.687l-40.277 120.84h-379.77c-22.434 0-42.367 14.348-49.516 35.688l-40.277 120.83h-66.73c-28.801 0-52.172 23.375-52.172 52.176v156.52c0 28.797 23.371 52.172 52.172 52.172h7.9844l97.094 582.52c4.1758 25.094 25.93 43.562 51.445 43.562h313.04c25.512 0 47.27-18.469 51.441-43.562l39.863-239.06 13.773 82.539c4.1719 25.098 25.93 43.566 51.445 43.566h313.04c25.512 0 47.27-18.469 51.441-43.566l97.098-582.52h7.9805c28.801 0 52.176-23.375 52.176-52.176v-156.52c0-28.797-23.375-52.172-52.176-52.172z"/>
  <path d="m947.23 939.14h-224.66l-56.504-339.13 2.1914-13.043 2.1406-13.043h7.9844c28.797 0 52.172-23.375 52.172-52.172v-104.35h303.65zm-842.77-521.74h521.74v52.172h-521.74zm141.96-156.52h237.81l17.426 52.172h-272.66zm469.57-156.52h237.81l17.426 52.176h-272.66zm431.95 52.176h-66.73l-40.277-120.84c-7.0977-21.34-27.027-35.687-49.512-35.687h-313.04c-22.438 0-42.367 14.348-49.516 35.687l-40.277 120.84h-379.77c-22.434 0-42.367 14.348-49.516 35.688l-40.277 120.83h-66.73c-28.801 0-52.172 23.375-52.172 52.176v156.52c0 28.797 23.371 52.172 52.172 52.172h7.9844l97.094 582.52c4.1758 25.094 25.93 43.562 51.445 43.562h313.04c25.512 0 47.27-18.469 51.441-43.562l39.863-239.06 13.773 82.539c4.1719 25.098 25.93 43.566 51.445 43.566h313.04c25.512 0 47.27-18.469 51.441-43.566l97.098-582.52h7.9805c28.801 0 52.176-23.375 52.176-52.176v-156.52c0-28.797-23.375-52.172-52.176-52.172z"/>
 </g>
</svg>
