<?xml version="1.0" encoding="UTF-8"?>
<svg width="1200pt" height="1200pt" version="1.1" viewBox="0 0 1200 1200" xmlns="http://www.w3.org/2000/svg">
 <defs>
  <clipPath id="a">
   <path d="m222.14 222.14h755.71v755.71h-755.71z"/>
  </clipPath>
 </defs>
 <g>
  <path d="m600 0c-78.793 0-156.82 15.52-229.61 45.672s-138.94 74.348-194.65 130.07c-55.719 55.715-99.914 121.86-130.07 194.65s-45.672 150.82-45.672 229.61c0 159.13 63.215 311.74 175.74 424.26 112.52 112.52 265.13 175.73 424.27 175.73 159.13 0 311.74-63.215 424.26-175.74 112.52-112.52 175.74-265.13 175.74-424.26 0-159.13-63.215-311.74-175.73-424.27-112.52-112.52-265.13-175.74-424.26-175.74zm0 67.762c69.121 0 137.56 13.766 201.42 40.516 63.859 26.746 121.88 65.953 170.76 115.38s87.645 108.1 114.09 172.67c26.453 64.574 40.066 133.79 40.066 203.68 0 141.16-55.457 276.53-154.16 376.34-98.707 99.816-232.58 155.89-372.18 155.89-69.121 0-137.57-13.766-201.43-40.516-63.855-26.746-121.88-65.949-170.76-115.37-48.875-49.422-87.645-108.1-114.1-172.67-26.449-64.574-40.066-133.79-40.066-203.68 0-69.898 13.613-139.11 40.066-203.68 26.449-64.574 65.219-123.25 114.1-172.68 48.875-49.422 106.9-88.625 170.76-115.38 63.859-26.746 132.3-40.512 201.43-40.512z" fill="#fff"/>
  <g clip-path="url(#a)" fill-rule="evenodd">
   <path d="m818.68 813.58h-141.48l-35.582-213.57 1.3789-8.2148 1.3477-8.2109h5.0273c18.137 0 32.855-14.723 32.855-32.859v-65.715h191.23zm-530.74-328.57h328.57v32.859h-328.57zm89.406-98.57h149.76l10.973 32.855h-171.71zm295.71-98.57h149.76l10.973 32.855h-171.71zm272.02 32.855h-42.023l-25.367-76.098c-4.4688-13.438-17.02-22.473-31.184-22.473h-197.14c-14.129 0-26.68 9.0352-31.184 22.473l-25.363 76.098h-239.17c-14.129 0-26.68 9.0352-31.18 22.477l-25.367 76.094h-42.023c-18.137 0-32.859 14.723-32.859 32.859v98.57c0 18.137 14.723 32.859 32.859 32.859h5.0273l61.145 366.85c2.6289 15.805 16.332 27.438 32.398 27.438h197.14c16.066 0 29.766-11.633 32.395-27.438l25.105-150.55 8.6719 51.98c2.6289 15.805 16.332 27.434 32.398 27.434h197.14c16.07 0 29.77-11.629 32.398-27.434l61.148-366.85h5.0273c18.137 0 32.855-14.719 32.855-32.855v-98.57c0-18.141-14.719-32.859-32.855-32.859z"/>
   <path d="m818.68 813.58h-141.48l-35.582-213.57 1.3789-8.2148 1.3477-8.2109h5.0273c18.137 0 32.855-14.723 32.855-32.859v-65.715h191.23zm-530.74-328.57h328.57v32.859h-328.57zm89.406-98.57h149.76l10.973 32.855h-171.71zm295.71-98.57h149.76l10.973 32.855h-171.71zm272.02 32.855h-42.023l-25.367-76.098c-4.4688-13.438-17.02-22.473-31.184-22.473h-197.14c-14.129 0-26.68 9.0352-31.184 22.473l-25.363 76.098h-239.17c-14.129 0-26.68 9.0352-31.18 22.477l-25.367 76.094h-42.023c-18.137 0-32.859 14.723-32.859 32.859v98.57c0 18.137 14.723 32.859 32.859 32.859h5.0273l61.145 366.85c2.6289 15.805 16.332 27.438 32.398 27.438h197.14c16.066 0 29.766-11.633 32.395-27.438l25.105-150.55 8.6719 51.98c2.6289 15.805 16.332 27.434 32.398 27.434h197.14c16.07 0 29.77-11.629 32.398-27.434l61.148-366.85h5.0273c18.137 0 32.855-14.719 32.855-32.855v-98.57c0-18.141-14.719-32.859-32.855-32.859z"/>
  </g>
 </g>
</svg>
