<?xml version="1.0" encoding="UTF-8"?>
<svg width="1200pt" height="1200pt" version="1.1" viewBox="0 0 1200 1200" xmlns="http://www.w3.org/2000/svg">
 <path d="m1156.3 702.7c-21.75-62.359-90.348-71.793-135.73-78.047-5-0.6875-9.7148-1.3281-14.133-2.0117-18.789-2.8945-50.191-9.8984-88.566-20.91 0.39453-0.72656 0.73828-1.5 0.99609-2.3164 2.1445-6.8047-1.6328-14.07-8.4336-16.223l-1.4766-0.46875c-8.8633-2.8359-26.031-8.3086-41.234 3.4961-10.988-3.6367-22.281-7.5391-33.781-11.691 0.66406-0.85938 1.2305-1.8047 1.6719-2.8516 2.7656-6.582-0.33594-14.164-6.9141-16.926-6.5273-2.7344-21.801-9.1523-37.012-2.6445-2.2812 0.97266-4.4492 2.2148-6.5234 3.6719-3.0859-1.2578-6.1719-2.5234-9.2695-3.8203-5.6016-2.3398-11.148-4.6953-16.637-7.0352 0.46875-0.61719 0.90234-1.2734 1.2578-1.9922 3.2344-6.375 0.67969-14.148-5.6836-17.375-10.023-5.0859-25.125-9.9492-40.148-4.3164-1.6055 0.60547-3.1445 1.3164-4.6406 2.1172-8.9297-4.0078-17.609-7.9453-26.035-11.797 0.50391-0.57812 0.96875-1.1914 1.3711-1.8594 3.6602-6.1328 1.6641-14.07-4.4648-17.734-13.527-8.0859-27.527-10.344-39.395-6.3594-2.3945 0.80078-4.6797 1.8555-6.8516 3.1055-9.2812-4.3164-18.18-8.4688-26.656-12.371 0.23438-0.33984 0.44531-0.6875 0.65234-1.0508 3.4492-6.2344 1.1953-14.105-5.0469-17.57-6.1523-3.3984-22.285-10.66-39.391-4.5898-0.44922 0.15625-0.89062 0.33984-1.332 0.51172l-115.77-64.801c-5.793-3.25-13.098-1.5781-16.91 3.8594-0.82031 1.1719-20.191 29.148-22.133 58.27-1.9492 29.18 2.0781 44.723 5.5469 52.422-52.266 34.719-98.406 58.68-126.54 65.121-59.777 13.691-134.67-12.559-150.92-73.469-0.91797-3.4531-3.2266-6.375-6.3711-8.0586-3.1406-1.6953-6.8438-2.0039-10.23-0.86719-45.91 15.414-80.191 65.93-87.348 128.7-0.003907 0.066406 0 0.11328-0.007813 0.18359-0.03125 0.26172-0.042969 0.54688-0.050781 0.81641-0.007813 0.16406-0.015625 0.32031-0.015625 0.49609 0 0.24219 0.015625 0.46875 0.03125 0.71094 0.007812 0.19922 0.019531 0.40625 0.039062 0.59766 0.027344 0.19922 0.050781 0.38281 0.085938 0.57031 0.035156 0.24219 0.066406 0.46875 0.11328 0.70312 0.035156 0.14844 0.078125 0.30469 0.10938 0.46875 0.0625 0.25 0.12109 0.49609 0.20312 0.73828 0.046875 0.15625 0.10156 0.30469 0.15625 0.45313 0.085938 0.24219 0.16406 0.47656 0.26172 0.71094 0.066406 0.17188 0.15234 0.33203 0.23438 0.50391 0.089844 0.19922 0.18359 0.39844 0.28906 0.59766 0.10156 0.19922 0.22266 0.39062 0.33984 0.58984 0.089844 0.14844 0.18359 0.3125 0.28125 0.46094 0.14062 0.20703 0.29297 0.40625 0.44531 0.61328 0.09375 0.12109 0.1875 0.25781 0.28516 0.38281 0.16016 0.19922 0.33203 0.39063 0.5 0.57813 0.11328 0.12109 0.22266 0.25 0.33984 0.36328 0.16016 0.16406 0.33203 0.32031 0.50391 0.47656 0.14453 0.13281 0.28906 0.26172 0.44141 0.39062 0.14844 0.12109 0.30469 0.24219 0.45703 0.35547 0.19531 0.14844 0.39062 0.29688 0.59375 0.43359 0.12891 0.085937 0.26172 0.17188 0.40234 0.25 0.24219 0.15625 0.48438 0.29688 0.73828 0.43359 0.050781 0.035157 0.089844 0.058594 0.14062 0.085938 0.066406 0.042969 0.13281 0.058594 0.19922 0.089844 0.33203 0.16406 0.66797 0.3125 1.0195 0.45312 0.13672 0.050781 0.26562 0.097656 0.40234 0.14844 0.3125 0.11328 0.62891 0.20703 0.95703 0.29688 0.16016 0.042969 0.31641 0.085938 0.47266 0.12109 0.30078 0.078125 0.60937 0.12109 0.91797 0.16406 0.26953 0.042968 0.54297 0.085937 0.80859 0.097656 0.34766 0.035156 0.69531 0.058594 1.0312 0.066406 0.042969 0 0.078125 0.007812 0.10938 0.007812 0.13281 0 0.26172-0.027343 0.39453-0.027343 0.35938-0.015625 0.71875-0.042969 1.0664-0.085938 0.20313-0.015625 0.40625-0.050781 0.60547-0.085937 0.33984-0.050782 0.66797-0.12109 1.0039-0.20703 0.16797-0.042968 0.34375-0.078124 0.51562-0.12109 0.45313-0.13281 0.90234-0.28906 1.332-0.46875 0.19531-0.078125 0.38672-0.17188 0.57422-0.26172 0.26172-0.12109 0.52734-0.25 0.78125-0.39062 0.21094-0.12109 0.41797-0.24219 0.62109-0.36328 0.25781-0.16406 0.50391-0.34766 0.75391-0.52734 0.26953-0.19922 0.54688-0.40625 0.80078-0.625 0.24219-0.21484 0.46875-0.42188 0.69531-0.64453 0.15625-0.15625 0.30469-0.32031 0.45703-0.47656 0.26172-0.28906 0.5-0.58984 0.73047-0.90234 0 0 0.007813 0 0.007813-0.007812-1.6133 14.184-2.4453 28.633-2.4453 43.297 0 46.914 1.5781 86.551 20.949 130.72-2.9453 6.7461-6.2266 19.25-1.5352 36.438 7.2578 26.598 36.18 36.246 53.844 36.246h387c23.262 0 55.59-0.11328 89.82-0.24219 74.422-0.26953 158.78-0.57813 176.79 0.22266 3.7266 0.16406 7.6602 0.25 11.758 0.25 60.266 0 156.54-16.898 160.95-17.68l2.7148-0.50391c1.1055 0.59766 2.3203 1.043 3.6172 1.3008 0.84766 0.16406 1.6836 0.24219 2.5195 0.24219 0.77344 0 1.5352-0.066407 2.2852-0.19922 5.3008-0.96094 10.512-1.9023 15.637-2.8125 28.828-5.1523 53.719-9.6016 74.383-15 39.508-10.32 72.426-20.586 104.74-37.191 3.9609-2.0312 6.7617-6.0625 7.0039-10.832 1.7852-34.316-1.2812-63.117-9.1211-85.586zm-97.238-38.031c-1.7344-2.6133-4.3086-5.707-8.793-9.168 15.941 3.125 31.723 7.5898 45.387 14.902 1.0625 0.78906 2.1641 2.1914 0.75 4.1992-7.9141 9.543-17.398 17.496-28.422 23.656-2.5547 1.4219-5.1719 2.8633-7.8555 4.332-4.6797 2.5703-9.5664 5.2578-14.57 8.1289 8.8906-10.121 15.133-18.461 17.207-27.633 0.98438-4.375 1.1406-11.113-3.7031-18.418zm-519.08-189.58c-1.2305 2.2734-2.3672 4.6797-3.4062 7.2422-2.6797 6.6211 0.51562 14.156 7.1406 16.836 1.5859 0.64453 3.2305 0.95312 4.8438 0.95312 5.1094 0 9.957-3.0625 11.988-8.0859 1.1094-2.7422 2.3398-5.1094 3.6797-7.1211 2.5312 1.1094 5.0977 2.2461 7.75 3.4336 0.39453 0.19922 0.79688 0.38281 1.2031 0.54688 13.184 5.9062 27.785 12.676 43.594 20.031-0.875 1.7539-1.7109 3.5898-2.4844 5.5234-2.6797 6.6211 0.50781 14.156 7.1367 16.836 1.582 0.63672 3.2305 0.94531 4.8477 0.94531 5.1094 0 9.9531-3.0508 11.984-8.0859 0.62891-1.5625 1.3047-2.9688 1.9922-4.293 15.82 7.3477 32.945 15.258 51.121 23.473-0.96094 1.8672-1.8789 3.8359-2.7227 5.918-2.6758 6.6133 0.51953 14.156 7.1445 16.828 1.582 0.64453 3.2305 0.95313 4.8438 0.95313 5.1094 0 9.957-3.0508 11.984-8.0859 0.75391-1.8594 1.5664-3.5391 2.418-5.0273 16.309 7.2109 33.301 14.559 50.863 21.91 0.95312 0.39844 1.8906 0.77734 2.8359 1.1719-0.73828 1.6211-1.4531 3.2969-2.1172 5.0586-2.5547 6.6719 0.79297 14.141 7.4648 16.691 1.5156 0.57812 3.0742 0.85156 4.6055 0.85156 5.207 0 10.113-3.1758 12.086-8.3203 0.62891-1.6719 1.3008-3.1914 1.9883-4.6133 20 7.832 39.84 15.043 59.062 21.547-0.61719 1.4141-1.2227 2.8516-1.8125 4.3906-2.5469 6.6719 0.79688 14.141 7.4648 16.684 1.5195 0.58984 3.0781 0.85938 4.6094 0.85938 5.2031 0 10.113-3.168 12.082-8.3203 0.79297-2.0586 1.5625-3.8867 2.3242-5.5156 21.414 6.8047 41.715 12.668 60.223 17.539-9.707 13.949-34.781 37.488-107.45 8.1211-38.812-15.684-134.42-55.598-218.77-90.82-56.969-23.789-108.18-45.172-137.9-57.43 1.6992-1.2422 3.3984-2.4805 5.1016-3.7461 0.51953-0.38281 1.0078-0.80078 1.4648-1.2578 0.25391-0.26953 24.812-24.277 60.82-13.621zm-106.11-22.391c0.85937-12.957 6.8164-26.363 11.547-35.168l55.871 31.281c-21.719 5.2578-36.047 17.539-39.613 20.855-6.5391 4.8398-13.047 9.543-19.496 14.113-2.5312 0.5625-4.8555 1.8828-6.6562 3.8008-1.4141-5.9023-2.8633-16.75-1.6523-34.883zm-280.32 111.5c6.582 5.3086 13.738 10.152 21.426 14.395 34.773 19.215 76.633 24.594 117.88 15.129 35.043-8.0273 91.535-38.184 154.9-82.254 8 3.2578 19.906 8.1719 34.598 14.277-15.883 14.133-46.77 39.422-86.559 61.277-18.789 10.324-37.727 20.695-56.504 30.434-3.4141 1.7617-11.379 5.7344-19.027 10.168-143.37-16.223-192.52-39.383-209.24-52.355 12.941-5.4492 27.289-9.2695 42.531-11.07zm-82.137 3.6953c10.594-23.406 26.219-41.938 44.621-52.082 3.8828 9.1016 9.082 17.82 15.395 25.965-22.531 5.0352-43.031 14.035-60.016 26.117zm7.3789 99.418c0-16.977 1.1836-33.633 3.5039-49.84 20.688 72.266 59.082 132.72 95.336 170.11-34.781-0.11328-68.363-0.48828-80.895-1.8359-16.613-38.883-17.945-73.887-17.945-118.43zm434.4 177.55h-387c-9.7617 0-25.695-5.457-28.895-17.191-1.9883-7.2773-1.5781-12.641-0.79688-16.031 0.31641 0.027343 0.62891 0.050781 0.94922 0.085937 6.6016 0.53906 15.875 0.92578 28.359 1.207 23.012 0.50391 53.898 0.53906 86.609 0.57031 26.398 0.035156 53.699 0.058594 79.113 0.33984 176 1.918 247.29 18.512 294.48 29.492 1.9375 0.45312 3.8477 0.89453 5.7422 1.3281-30.004 0.10547-57.895 0.19922-78.57 0.19922zm78.688-26.715c-48.277-11.234-121.23-28.211-300.05-30.172-24.41-0.26172-50.461-0.29688-75.816-0.32031-46.656-36.68-92.18-112.71-111.36-186.43-1.1484-4.4062-2.2148-8.8477-3.25-13.281 16.746 17.504 64.781 52.742 192 75.984 162.8 29.738 285.09 21.027 305.28 144.65 0.64453 3.9531 1.3633 7.8242 2.1406 11.633-2.918-0.67188-5.8789-1.3555-8.9375-2.0664zm100.23-145.42c-42.621-16.676-97.336-27.957-167.45-30.66-61.156-2.3672-113.47-5.7305-158.21-9.7578 13.91-7.418 27.902-14.992 41.77-22.613 51.91-28.508 88.738-61.789 100.45-73 26.93 11.219 58.98 24.602 91.852 38.324 37.395 15.613 76.996 32.148 112.9 47.098zm260.3 140.93c-20.219 4.293-63.344 12.371-119.61 16.961-9.6328-51.289-39.41-109.38-117.03-147.51 0.046874-0.097656 0.10156-0.18359 0.14062-0.26953l21.398-50.785c34.918 14.504 64.496 26.73 82.27 33.91 26.566 10.73 49.59 16.059 69.727 16.059 7.7656 0 15.098-0.79688 22.047-2.375 18.758-4.2656 34.059-14.305 45.613-29.867 8.3086 1.7109 21.871 4.7305 35.777 8.7734 26.758 7.7656 37.758 14.289 42.141 17.809 1.125 1.0742 2.2227 2.7695 0.97656 4.7812-3.2227 5.4219-10.32 13.246-17.234 20.887-20.777 22.887-51.68 57-66.215 111.62zm187.48-34.207c-28.176 13.617-57.707 22.688-92.758 31.84-18.746 4.8945-41.801 9.0859-68.383 13.848 18.066-58.27 59.719-81.156 93.82-99.867 2.7344-1.5117 5.4141-2.9766 8.0195-4.4336 14.953-8.3516 27.711-19.281 38.09-32.586 5.5547 6.4023 10.066 13.965 13.211 22.969 6.168 17.707 8.8477 40.637 8 68.23z"/>
</svg>
