<?xml version="1.0" encoding="UTF-8"?>
<svg width="3600pt" height="3600pt" version="1.1" viewBox="0 0 3600 3600" xmlns="http://www.w3.org/2000/svg">
 <g>
  <path d="m1800 0c-236.38 0-470.45 46.559-688.83 137.02-218.39 90.457-416.82 223.05-583.96 390.2-167.15 167.14-299.73 365.57-390.2 583.96-90.457 218.39-137.02 452.46-137.02 688.84 0.0039062 477.39 189.65 935.23 527.21 1272.8 337.57 337.57 795.4 527.21 1272.8 527.2 477.39 0 935.22-189.64 1272.8-527.21s527.21-795.4 527.21-1272.8c0-477.39-189.64-935.23-527.2-1272.8-337.56-337.56-795.4-527.21-1272.8-527.21zm0 203.28c207.36 0 412.69 41.305 604.27 121.55 191.57 80.242 365.64 197.86 512.27 346.13 146.62 148.27 262.93 324.29 342.29 518.02 79.355 193.72 120.19 401.35 120.19 611.04 0 423.47-166.36 829.6-462.48 1129-296.12 299.44-697.75 467.66-1116.5 467.67-207.36 0-412.7-41.301-604.27-121.54s-365.65-197.85-512.27-346.12c-146.63-148.27-262.94-324.29-342.29-518.01-79.355-193.72-120.2-401.36-120.2-611.04-0.003906-209.69 40.84-417.32 120.19-611.04 79.355-193.72 195.66-369.75 342.29-518.02 146.63-148.27 320.7-265.88 512.28-346.12 191.58-80.242 396.91-121.54 604.27-121.54z"/>
  <path d="m2698.8 1925.7-233.09-25.062c-30.422-3.2773-60.355-10.496-88.957-21.43l-185.89-71.246c-8.0156-3.0547-16.961 0.92969-20.016 8.9453-3.0547 8.0156 0.92969 16.961 8.9453 20.016l185.89 71.246c31.086 11.91 63.629 19.75 96.707 23.336l178.62 19.219-333.7 64.691c-168.88 32.723-340.6 35.469-510.42 8.0586l-388.07-62.566c-8.457-1.3711-16.383 4.3828-17.758 12.84-1.3711 8.457 4.3828 16.43 12.84 17.758l388.07 62.566c78.953 12.707 158.26 19.086 237.56 19.086 94.891 0 189.74-9.1211 283.66-27.32l418.85-81.164c18.641 6.2891 35.734 15.719 50.746 27.586l-0.53125 0.17578c-58.938 20.988-119.07 38.301-180.13 51.941l-252.44 56.281c-67.883 15.145-127.3 55.926-165.79 113.84l-19.527 29.359-288.93-77.137c-45.121-12.043-91.395-14.258-137.45-6.5977l-99.453 16.562c-11.336 1.9023-22.672 3.0117-34.051 3.5859l-564.35-387.68c-36.223-24.84-84.84-20.988-116.68 9.2539l-170.74 162.24v-9.1211c0-12.441 1.6836-24.797 4.9609-36.797l110.88-405.12 9.5664 56.988c9.6992 57.785 30.863 111.98 62.922 161 2.9648 4.5625 7.9258 6.9961 12.973 6.9961 2.9219 0 5.8438-0.79688 8.457-2.5234 7.1719-4.6953 9.1641-14.301 4.4727-21.43-16.914-25.859-30.422-53.27-40.695-81.961l37.062 21.344c20.324 11.691 42.996 17.492 65.625 17.492 27.012 0 53.934-8.2812 76.738-24.574l350.43-251.25 81.297-39.676c10.762-5.2695 23.867-3.2344 32.5 5.0469l14.746 14.082-39.496 46.539c-8.8125-1.9023-18.465-1.6367-28.43 2.0352-17.844 6.5977-31.039 22.762-33.344 41.668-3.8516 31.305 20.457 57.918 50.965 57.918 27.676 0 50.215-21.875 51.32-49.285 0.13281-2.8789-1.2852-3.4531-3.1445-1.2383l-13.238 15.586c-3.0547 3.6328-7.4375 5.4922-11.824 5.4922-3.543 0-7.0859-1.1953-10.008-3.6758-6.5078-5.5352-7.3047-15.32-1.7695-21.832l61.105-72 68.191 65.227-376.73 433.77c-5.625 6.4648-4.9141 16.25 1.5508 21.875 2.9219 2.5664 6.5547 3.8086 10.141 3.8086 4.3398 0 8.6328-1.8164 11.691-5.3594l238.54-274.62 175.17 126.38c53.004 38.258 115.3 57.875 178.32 57.875 38.035 0 76.383-7.1719 113.09-21.742l42.023-16.695c6.9062 3.6758 13.816 7.3047 20.812 10.805 7.6602 3.8516 16.961 0.75391 20.812-6.9062 3.8516-7.6602 0.75391-16.961-6.9062-20.812-46.938-23.559-91.703-50.879-133.99-81.652l12.266-14.348c5.5781-6.5078 4.7812-16.297-1.7266-21.832-6.5078-5.5781-16.297-4.7812-21.832 1.7266l-13.551 15.809c-22.496-17.492-44.234-36-65.137-55.484l16.473-19.262c5.5781-6.5078 4.7812-16.297-1.7266-21.832-6.5078-5.5781-16.297-4.7812-21.832 1.7266l-15.41 18.023-60.223-57.609 18.023-21.078c5.5781-6.5078 4.7812-16.297-1.7266-21.832-6.5078-5.5781-16.297-4.7812-21.832 1.7266l-16.914 19.793-147.5-141.08 20.059-23.645c3.1875-6.2422 1.8594-14.125-3.7188-18.863-6.5078-5.5352-16.297-4.7383-21.832 1.7695l-16.605 19.57-12.621-12.043-92.59-117.96c-8.2812-10.582-20.723-17.047-34.141-17.711-13.418-0.70703-26.48 4.4297-35.824 14.082l-63.363 65.359c-6.332 6.5078-10.582 14.656-12.266 23.602l-10.582 55.086c-1.5938 8.4141 3.8984 16.516 12.309 18.156 0.97266 0.17578 1.9922 0.26562 2.9648 0.26562 7.2617 0 13.77-5.1367 15.188-12.574l10.582-55.086c0.57422-2.9648 1.9922-5.668 4.0742-7.8359l63.363-65.359c3.1445-3.2773 7.3516-4.9609 11.957-4.6953 4.5156 0.22266 8.5898 2.3477 11.379 5.8906l64.691 82.449c-5.4922 0.92969-10.895 2.6133-16.031 5.1367l-257 125.4c-66.508 32.457-145.24 25.902-205.46-17.137l-100.74-71.957c-15.898-11.336-36.398-14.215-54.773-7.6602-18.422 6.5547-32.457 21.695-37.637 40.562l-140.45 512.94c-4.0312 14.656-6.0664 29.801-6.0664 44.988v321.87c0 30.953 18.375 58.891 46.762 71.156l98.699 42.598c9.7422 4.207 20.102 6.332 30.73 6.332h1414.4c50.789 0 101.58-6.1094 150.95-18.199l317.36-77.625c57.387-14.035 97.461-65.09 97.461-124.16v-51.543c0.042968-102.82-77.094-188.68-179.34-199.66zm-944.63-388.96-39.852 46.629c-5.5781 6.5078-4.7812 16.297 1.7266 21.832 2.9219 2.4805 6.5078 3.7188 10.051 3.7188 4.3828 0 8.7227-1.8594 11.777-5.4453l38.746-45.297 60.223 57.609-32.016 37.418c-5.5781 6.5078-4.7812 16.297 1.7266 21.832 2.9219 2.4805 6.5078 3.7188 10.051 3.7188 4.3828 0 8.7227-1.8594 11.777-5.4453l30.953-36.223c20.945 19.438 42.688 37.949 65.137 55.484l-24.887 29.094c-5.5781 6.5078-4.7812 16.297 1.7266 21.832 2.9219 2.4805 6.5078 3.7188 10.051 3.7188 4.3828 0 8.7227-1.8594 11.777-5.4453l26.082-30.508c27.23 19.883 55.438 38.348 84.574 55.395l-18.555 7.3945c-87.543 34.762-185.45 22.629-261.83-32.457l-172.91-124.74 116.81-134.52zm-856.07-131.73c2.5234-9.2109 9.1211-16.34 18.109-19.527 8.9883-3.1875 18.598-1.8594 26.391 3.6758l100.74 71.957c69.477 49.637 160.34 57.211 237.07 19.75l9.1641-4.4727-201.92 144.75c-31.969 22.938-74.699 25.062-108.8 5.4453l-65.227-37.551c-1.8594-7.9688-3.543-15.984-4.9141-24.133l-20.633-123.1zm90.773 960.93c-33.387-45.297-84.707-74.566-141.39-79.66l-1.3711-0.13281c-17.977-1.5938-35.691-5.668-52.559-12.09l-40.828-15.496v-140.63l21.832-10.672c59.246-29.004 127.39-37.285 191.82-23.293l554.83 120.27c40.43 8.7656 81.609 9.7422 122.43 2.9648l99.453-16.562c41.711-6.9531 83.555-4.9609 124.38 5.9766l301.95 80.633-83.07 88.781-1097.5 0.003906zm1858.3-215.43-32.547 16.164c-171.85 85.418-353.71 149-541.32 189.39l-46.008 9.875h-98.566l72.887-77.891c44.68-47.734 104.86-79.617 169.41-89.711l223.3-34.98c57.344-8.9883 113.14-25.77 165.88-49.902l79.883-36.531c4.5625 15.41 7.0391 31.703 7.0391 48.531v25.059z"/>
  <path d="m1400.6 2214.5h-342.02c-26.258 0-47.559 21.297-47.559 47.559 0 26.258 21.297 47.559 47.559 47.559h342.02c26.258 0 47.559-21.297 47.559-47.559 0-26.262-21.301-47.559-47.559-47.559z"/>
  <path d="m1198.4 1257.1c6.5977 5.4922 16.34 4.5625 21.832-1.9922 0.66406-0.79688 1.1953-1.5938 1.6836-2.4805 3.5-6.375 2.125-14.523-3.6758-19.352l-88.648-73.77c-6.5977-5.4922-16.34-4.5625-21.832 1.9922-5.4453 6.5547-4.5625 16.34 1.9922 21.832z"/>
  <path d="m1531.2 1124.4c6.0664 0.22266 11.469-3.0547 14.215-8.0156 1.1055-2.0352 1.8164-4.3828 1.9023-6.8633l4.4727-115.22c0.35547-8.5469-6.332-15.766-14.879-16.074-8.5469-0.30859-15.766 6.332-16.074 14.879l-4.4727 115.22c-0.39453 8.5469 6.293 15.723 14.836 16.074z"/>
  <path d="m2635.2 2493.5c-4.9141-6.9961-14.566-8.7227-21.609-3.7656-6.9961 4.9141-8.6797 14.566-3.7656 21.609l66.242 94.359c3.6758 5.2266 9.9648 7.4844 15.809 6.2891 2.0352-0.39844 3.9844-1.2383 5.8008-2.4805 6.9961-4.9141 8.6797-14.566 3.7656-21.609z"/>
  <path d="m2279.2 2534.5c-8.1484-2.5664-16.871 1.9922-19.438 10.141l-34.449 110.04c-2.5664 8.1484 1.9922 16.871 10.141 19.438 2.6133 0.79688 5.2266 0.92969 7.75 0.39844 5.3594-1.1055 9.9648-5.0039 11.691-10.539l34.449-110.04c2.5625-8.1914-1.9531-16.871-10.145-19.438z"/>
 </g>
</svg>
