<?xml version="1.0" encoding="UTF-8"?>
<svg width="1200pt" height="1200pt" version="1.1" viewBox="0 0 1200 1200" xmlns="http://www.w3.org/2000/svg">
 <g>
  <path d="m1200 600c0 214.36-114.36 412.44-300 519.62-185.64 107.18-414.36 107.18-600 0-185.64-107.18-300-305.26-300-519.62s114.36-412.44 300-519.62c185.64-107.18 414.36-107.18 600 0 185.64 107.18 300 305.26 300 519.62" fill="#fff"/>
  <path d="m963.54 699.44c-3.1836-9.5469-14.32-15.91-14.32-15.91s-1.5898-4.7734-7.1602-11.137c-5.5703-6.3633-22.273-19.887-27.844-23.863-6.3633-3.9766-13.523-6.3633-49.32-12.727-78.754-7.9531-106.59-18.297-119.32-23.07 1.5898-5.5703-2.3867-11.934-5.5703-14.32-3.9766-2.3867-17.5-7.9531-25.457-8.75-7.9531-0.79688-21.477-9.5469-26.25-11.934-5.5703-2.3867-7.9531-5.5703-14.32-8.75-5.5703-3.1836-18.297-7.9531-26.25-7.9531s-29.434-11.137-33.41-14.32-14.32-14.32-23.07-19.09c-8.75-3.9766-19.09-7.1602-24.66-10.34-5.5703-3.9766-9.5469-22.273-9.5469-23.07s0.79688-5.5703 0-9.5469-11.137-20.684-13.523-24.66c-2.3867-3.9766-14.32-34.207-15.91-38.184-2.3867-3.9766-11.934-29.434-15.91-36.594-3.9766-7.9531-14.32-20.684-21.477-20.684-7.1602-0.79688-31.023 13.523-38.184 15.91-7.1602 2.3867 0 0-28.637 14.32-27.047 10.34-70.004 23.863-93.07 31.82-11.934 3.9766-17.5 4.7734-34.207 8.75-26.242 1.5898-27.039 11.137-27.039 11.137s-3.9766 3.9766 0 7.9531c-5.5703 2.3867-7.9531 48.523-7.9531 48.523 0 0.003906-3.1836 3.1836-6.3672 5.5703 0 2.3867-2.3867 41.367-3.1836 43.75-0.79688 2.3867-3.1836 6.3633-7.1602 10.34-3.9766 3.9766 0 26.25-1.5898 32.613-2.3867 0.79688-0.79688 7.1602 0 13.523 0.79688 7.1602-0.79688 91.48 0 130.46 0.79688 38.184 3.9766 36.594 7.9531 44.547 14.32 14.32 44.547 12.727 53.297 14.32 9.5469 1.5898 112.96 0.79688 132.05 0s91.48-2.3867 96.254-2.3867c5.5703 0 110.57 2.3867 121.71 2.3867 11.137 0 71.594-3.9766 124.1-8.75 52.504-5.5703 103.41-16.707 133.64-26.25 29.434-9.5469 41.367-20.684 49.32-29.434 7.1641-8.7461 5.5742-24.656 2.3906-34.203zm-232.28-6.3633c3.1836-4.7734 3.1836-8.75 3.9766-11.934 2.3867-8.75 2.3867-8.75 6.3633-19.887 0-0.79688 0.79688-0.79688 0.79688-1.5898 18.297-22.273 2.3867-32.613-3.9766-35.797-1.5898-0.79688-2.3867-2.3867-2.3867-3.9766 0-3.1836 3.1836-5.5703 6.3633-3.9766 3.9766 1.5898 8.75 3.1836 11.137 3.9766 3.9766 0.79688 22.273 6.3633 26.25 7.1602s27.047 4.7734 35 6.3633c7.9531 1.5898 58.07 7.9531 61.254 7.9531 3.9766 0 23.863 6.3633 28.637 8.75 4.7734 2.3867-3.9766 5.5703-5.5703 6.3633-1.5898 0.79688-9.5469 3.9766-16.707 5.5703 0 0-38.98 8.75-45.344 9.5469s-31.82 5.5703-42.957 7.1602c-10.34 1.5898-17.5 3.1836-27.844 14.32 0 0-0.79688 0.79688-0.79688 1.5898-3.9766 8.75-7.1602 8.75-7.1602 8.75s-5.5703 1.5898-15.91 0.79688h-0.79687c-7.1484-1.5938-12.715-5.5742-10.328-11.141zm-470.93-180.58c0-1.5898 0.79688-2.3867 2.3867-2.3867 3.9766-1.5898 15.113-5.5703 20.684-7.1602 7.1602-2.3867 132.05-63.641 173.42-83.527 41.367-19.887 50.91 18.297 50.91 18.297l7.9531 33.41s7.1602 17.5-66.82 48.523c-62.047 26.25-74.777 55.684-77.164 64.434-0.79687 1.5898-1.5898 2.3867-3.9766 2.3867-61.254-5.5625-86.707-14.312-108.98-21.473-1.5898-0.79688-2.3867-1.5898-2.3867-3.1836 0-18.293 3.1797-42.16 3.9766-49.32zm-11.137 93.871c-1.5898-6.3633 0.79688-21.477 0.79688-21.477s-1.5898-14.32-0.79688-15.91c1.5898-2.3867 50.117 15.91 92.277 20.684 12.727 0.79688 49.32 4.7734 72.391-9.5469 23.07-14.32 59.66-34.207 59.66-34.207s2.3867 21.477 17.5 23.07c14.32 1.5898 39.773 3.1836 49.32 4.7734s19.887 7.1602 22.273 8.75 14.32 15.113 20.684 19.887 25.457 23.07 33.41 26.25c7.9531 3.1836 19.09 7.9531 19.09 7.9531s3.9766 38.184-15.91 83.527l-7.9531 17.5s-112.96-10.34-126.48-11.137c-12.727-0.79688-74.777 0-76.367-2.3867-2.3867-2.3867-29.434-60.457-29.434-60.457s-3.9766-12.727-23.07-18.297c-19.086-7.1602-106.59-31.82-107.39-38.977zm705.6 124.09c-2.3867 3.9766-4.7734 7.9531-8.75 11.137-10.34 9.5469-51.707 20.684-99.438 30.23-48.523 9.5469-166.26 15.113-188.53 17.5-23.07 2.3867-100.23 0.79688-115.35 0-15.113-0.79688-76.367 0-81.934 0-5.5703 0-80.344-0.79688-95.457 0-13.523 0.79688-64.434 0-78.754 0-2.3867 0-5.5703 0-7.9531-0.79688-3.1836-0.79688-7.1602-1.5898-11.137-3.1836-7.1602-2.3867-12.727-8.75-14.32-15.91 0-1.5898-0.79688-2.3867-0.79688-3.9766-1.5898-11.934-0.79688-35 0-42.957 0-1.5898 1.5898-2.3867 3.1836-2.3867 3.1836 0.003906 12.727 1.5938 22.273 3.1836 11.934 2.3867 61.254 2.3867 74.777 2.3867 2.3867 0 4.7734 0 6.3633 0.79688 13.523 1.5898 7.9531 1.5898 37.387 4.7734h3.9766c35 0 46.137 0.79688 108.98 4.7734 14.32 1.5898 79.551 6.3633 151.14 9.5469s179.78-11.934 209.21-15.113c29.434-3.1836 67.617-19.09 71.594-21.477 2.3867-1.5898 5.5703-3.9766 7.9531-5.5703 1.5898-1.5898 3.9766-1.5898 5.5703 0 0.79688 0.79688 1.5898 2.3867 1.5898 3.9766 3.9805 7.1562 3.1836 15.906-1.5898 23.066z"/>
  <path d="m485.45 439.31c0 4.832-3.918 8.75-8.7539 8.75-4.832 0-8.75-3.918-8.75-8.75s3.918-8.75 8.75-8.75c4.8359 0 8.7539 3.918 8.7539 8.75"/>
  <path d="m498.97 471.93c0 4.832-3.9141 8.75-8.75 8.75-4.832 0-8.75-3.918-8.75-8.75 0-4.8359 3.918-8.7539 8.75-8.7539 4.8359 0 8.75 3.918 8.75 8.7539"/>
 </g>
</svg>
