<?xml version="1.0" encoding="UTF-8"?>
<svg width="1200pt" height="1200pt" version="1.1" viewBox="0 0 1200 1200" xmlns="http://www.w3.org/2000/svg">
 <path d="m1147.8 608.78c-0.078126-1-0.25781-2.0156-0.57031-3.0195-4.2148-13.586-11.121-31.777-19.984-41.258-23.945-25.59-76.48-36.445-132.11-47.934-23.926-4.9414-48.668-10.051-70.363-16.297-13.418-3.8594-38.648-12.488-70.164-23.719l0.058594-8.6523c0.035156-4.9414-2.6719-9.4961-7.0195-11.844-4.3477-2.3438-9.6328-2.1055-13.75 0.64062l-12.102 8.0547c-11.477-4.1602-23.441-8.5273-35.68-13.02l0.23437-6.9062c0.18359-5.4023-2.9141-10.383-7.8398-12.621-4.9258-2.2344-10.715-1.2773-14.66 2.418l-6.8281 6.3984c-9.4727-3.4922-19.016-7.0352-28.566-10.578l0.34766-8.5312c0.21484-5.3359-2.7617-10.281-7.5742-12.59-4.8125-2.3164-10.531-1.5312-14.559 1.9727l-8.8828 7.7266c-10.801-4.0312-21.473-8.0234-31.906-11.93l0.042969-9.7891c0.015625-5.2422-3.0352-10.012-7.8047-12.199-4.7617-2.1836-10.367-1.375-14.328 2.0664l-9.3438 8.1172c-10.789-4.0547-21.117-7.9414-30.816-11.605l0.32031-11.016c0.14062-5-2.5078-9.6602-6.8789-12.078-4.375-2.4258-9.7344-2.207-13.891 0.5625l-14.164 9.4453c-24.477-9.2695-40.57-15.402-43.086-16.359l-76.27-33.723c-4.0469-1.7891-8.7148-1.4609-12.473 0.87891-7.2773 4.5352-71.238 45.645-75.348 92.02-0.97656 11.066 1.5508 21.594 7.3477 31.133-43.91 20.848-91.805 37.148-134.27 37.148-33.348 0-58.281-5.8867-75.762-14.117 6.4531-10.059 10.418-24.145 6.3125-42.344-9.1055-40.324-62.777-61.152-95.727-57.785-22.352 2.2891-36.453 15.586-36.805 34.711v0.24609c0 15.691 9.7578 39.07 36.648 39.137 13.785 0.042969 21.496 0.84375 26.43 2.9023-10.957 28.41-32.605 93.07-24.727 142.95 7.125 45.105 23.336 79.68 31.285 94.617-0.39453 1.2188-0.625 2.5156-0.65625 3.8633-0.03125 1.2422 0.12891 2.4336 0.41797 3.5781-1.3945 6.2656-2.543 14.93-2.543 26.445 0 4.9414-0.09375 9.3945-0.1875 13.703-0.39453 18.461-0.70703 33.051 9.7344 43.715 12.008 12.262 33.48 14.336 77.078 14.336 12.566 0 37.754 0.26953 72.617 0.64844 72.691 0.77734 177.66 1.9062 281.48 1.9062 148.84 0 295.27-2.3203 340.71-11.305 73.414-14.512 195-53.676 243.86-69.836 15.824-5.2383 28.723-21.246 31.379-38.938 4.4336-29.852 1.6055-50.004-8.6602-61.348zm-40.078-26.02c2.6367 2.8242 5.9453 9.1211 9.1953 17.297-2.6211 0.54297-5.4062 1.3477-8.3789 2.4648-9.9883 3.7461-28.031 8.8164-48.918 14.691-76.418 21.477-191.91 53.93-224.06 103.05-3.0508 4.6602-6.3242 9.8398-9.7891 15.457-7.7305 0.77344-15.379 1.4453-22.953 2.0273 12.578-20.906 25.105-40.012 39.438-54.09 23.352-22.93 66.562-40.367 104.69-55.75 45.328-18.285 75.266-30.371 77.641-51.738 1.6133-14.453-12.691-24.719-42.5-30.508l-52.859-10.98c2.5703-1.9648 4.2266-3.4414 5.0273-4.1992 17.984 4.5156 36.957 8.4375 55.473 12.266 49.094 10.145 99.855 20.625 118 40.016zm-443.71-41.664-20.723 33.848c-13.09-4.4961-26.738-8.5547-40.973-12.141-16.113-4.0586-32.5-7.3828-48.953-10.117l32.891-35.074c24.824 8.0117 51.051 16.016 77.758 23.484zm228.38 12.945c0.82422 0.35938 1.6953 0.64062 2.6055 0.82812l81.75 16.984c0.058594 0.011719 0.12109 0.019531 0.18359 0.039062 5.7305 1.1094 12.137 2.9531 16.812 4.7305-2.6445 1.9297-6.8047 4.5195-13.312 7.7969-11.609 5.8438-27.086 12.086-43.469 18.695-40.441 16.316-86.273 34.812-113.42 61.469-7.1367 7.0039-13.707 14.859-19.996 23.32-27.387-39.531-66.059-71.055-115.1-94.57l24.145-39.449c1.207 0.30078 2.4141 0.59766 3.6172 0.89062 36.637 8.8945 68.055 12.312 94.715 12.312 35.086-0.007813 61.895-5.9297 81.469-13.047zm-766.09 176.13c0.09375-4.2422 0.19531-9.0547 0.19531-14.273 0-6.7188 0.46484-11.984 1.0625-16.02 44.488 1.3711 196.08 7.1992 279 24.84 6.9375 1.4727 14.145 3.0391 21.617 4.6562 19.207 4.1602 40.473 8.7656 63.605 13.293h-365.6c-0.066406-3.707 0.023438-7.9805 0.11719-12.496zm424.46-4.0391c-43.5-6.9805-82.5-15.422-116.93-22.879-6.1797-1.3359-12.176-2.6367-17.992-3.8867l48.266-51.477c38.762 15.801 70.332 35.688 97.902 59.867zm127.63 13.469c-14.34-18.031-29.711-35.578-47.852-51.664l29.551-48.285c41.855 25.555 73.547 61.406 96.172 100.61-27.016 0.80859-52.965 0.50391-77.871-0.65625zm-90.461-130.11c9.957 2.5078 19.512 5.5391 28.707 8.9922l-24.836 40.594c-5.5625-3.4336-11.359-6.7383-17.43-9.8984-21.504-11.18-49.742-21.902-81.738-31.723l20.738-22.125c27.621 4.0781 53.488 8.8477 74.559 14.16zm-147.67-6.5195c-35.676-8.8984-73.66-16.625-110.86-22.699 31.695-0.14062 77.875 2.6484 124.98 7.6406zm-26.184 27.93-55.109 58.789c-61.719-8.2461-135.35-12.641-185.41-14.863-18.734-4.375-70.016-22.582-72.598-91.059-0.25781-6.8828-0.17969-13.215 0.19141-19.055 45.684 17.285 111.3 34.141 205.59 45.66 40.594 4.957 76.012 11.777 107.33 20.527zm380.06-147.74-9.3164 6.2031 0.32031-9.4922c3.0195 1.1016 6.0195 2.1992 8.9961 3.2891zm-58.957-21.684-8.293 7.7734 0.42188-10.688c2.625 0.96875 5.25 1.9414 7.8711 2.9141zm-60.359-22.469-9.1016 7.9258 0.042969-11.312c3.0039 1.125 6.0234 2.2539 9.0586 3.3867zm-63.344-23.777-9.0117 7.8281 0.33203-11.098c2.8398 1.0703 5.7461 2.1641 8.6797 3.2695zm-109.66 16.207c4.0938 6.1445 12.391 7.793 18.531 3.7031l52.027-34.672c1.3008 0.49219 2.6328 0.99609 3.9648 1.5l-1.4766 50.781c-0.15625 5.3047 2.8438 10.199 7.6367 12.469 4.7969 2.2695 10.48 1.4844 14.488-1.9883l42.078-36.559-0.19141 49.668c-0.015624 5.2461 3.0352 10.016 7.8047 12.199 4.7617 2.1836 10.375 1.375 14.34-2.0703l39.812-34.66-1.9766 48.961c-0.21484 5.418 2.8711 10.43 7.7969 12.691 4.9375 2.2539 10.738 1.3047 14.703-2.4062l37.172-34.824-1.3008 38.211c-0.16406 5.0078 2.4727 9.6875 6.8438 12.125 4.3828 2.4375 9.7422 2.2305 13.914-0.54687l47.367-31.535c0.80078 0.28906 1.6055 0.57422 2.3945 0.85938l-0.14062 22.301c-0.042969 7.3789 5.9062 13.402 13.289 13.449h0.085937c7.3398-0.003906 13.316-5.9297 13.359-13.285l0.085938-12.945c18.398 6.5078 34.371 12.012 46.75 16.047-7.0117 3.7969-16.594 8.0508-29.062 11.598-28.211 8.0312-77.078 13.898-149.62-3.7188-118.62-28.805-240.01-75.219-282.02-91.887 39.441-23.293 69.98-45.617 82.566-55.148 4.4375 1.6836 10.766 4.0938 18.605 7.0664l-36.129 24.078c-6.1328 4.1016-7.793 12.395-3.6992 18.539zm-113.38-15.637c2.2227-25.312 37.793-54.66 57.051-67.891l48.961 21.645c-20.918 15.027-58.07 40.242-101.28 62.969-3.7383-5.2148-5.2617-10.66-4.7344-16.723zm22.941 37.5c1.0117 0.84766 2.168 1.5547 3.4453 2.0859 0.86328 0.35938 50.891 21.047 121.22 45.41l-41.684 44.465c-63.113-5.6562-123.49-4.5-169.02-3.6211-6.3047 0.12109-12.367 0.24219-18.16 0.33984-65.441 1.0664-135.87-10.965-191.79-23.887 16.43-22.207 42.312-20.473 53.691-18.398 18.035 5.4141 39.867 8.7305 65.809 8.7305 57.629 0.007812 122.4-26.148 176.49-55.125zm-351.73-50.832c0.050781-2.1211 0.5-7.168 12.793-8.4297 24.992-2.5625 61.938 14.965 66.934 37.082 2.2422 9.9375 0.45313 16.84-2.2969 21.488-3.4844-3.5273-6.0586-7.1172-7.7656-10.586-1.2578-2.5703-2.6602-4.7422-4.1836-6.5312-10.926-15.891-24.949-20.594-55.492-20.676-8.418-0.023437-9.875-7.8008-9.9883-12.348zm1070.3 263.71c-1.1641 7.7305-7.0117 15.426-13.336 17.52-48.395 16.008-168.71 54.773-240.65 68.992-7.582 1.5-18.312 2.7969-31.691 3.9336 4.9375-8.1484 9.4922-15.422 13.629-21.727 26.648-40.727 140.74-72.789 208.91-91.949 22.355-6.2812 40.02-11.25 51.07-15.398 3.25-1.2148 5.7773-1.6992 7.4844-1.6992 1.0586 0 1.8047 0.19141 2.1914 0.50391 2.5742 2.0898 6.3906 13.09 2.3945 39.824z"/>
</svg>
